<?xml version="1.0" encoding="utf-8"?>
<!-- Generator: Adobe Illustrator 24.1.2, SVG Export Plug-In . SVG Version: 6.00 Build 0)  -->
<svg version="1.1" id="Layer_1" xmlns="http://www.w3.org/2000/svg" xmlns:xlink="http://www.w3.org/1999/xlink" x="0px" y="0px" width="314.414" height="87.355"
	 viewBox="0 0 306.3 87.3" style="enable-background:new 0 0 306.3 87.3;" xml:space="preserve">
<style type="text/css">
	.st0{fill:#FFFFFF;}
	.st1{fill-rule:evenodd;clip-rule:evenodd;fill:#242424;}
	.st2{fill-rule:evenodd;clip-rule:evenodd;fill:#121212;}
	.st3{clip-path:url(#SVGID_2_);}
	.st4{clip-path:url(#SVGID_4_);}
	.st5{fill-rule:evenodd;clip-rule:evenodd;fill:#D37215;}
	.st6{clip-path:url(#SVGID_6_);}
	.st7{clip-path:url(#SVGID_8_);}
	.st8{clip-path:url(#SVGID_10_);}
	.st9{clip-path:url(#SVGID_12_);}
	.st10{clip-path:url(#SVGID_14_);}
	.st11{fill-rule:evenodd;clip-rule:evenodd;fill:#99511D;}
	.st12{clip-path:url(#SVGID_16_);}
	.st13{clip-path:url(#SVGID_18_);}
	.st14{fill-rule:evenodd;clip-rule:evenodd;fill:#040504;}
	.st15{clip-path:url(#SVGID_20_);}
	.st16{clip-path:url(#SVGID_22_);}
	.st17{fill-rule:evenodd;clip-rule:evenodd;fill:#1A1A1A;}
	.st18{fill:#D37215;}
	.st19{fill-rule:evenodd;clip-rule:evenodd;fill:#EE8B3F;}
	.st20{fill-rule:evenodd;clip-rule:evenodd;fill:#AC5C23;}
	.st21{clip-path:url(#SVGID_24_);}
	.st22{clip-path:url(#SVGID_26_);}
	.st23{fill-rule:evenodd;clip-rule:evenodd;fill:#FF9B60;}
	.st24{clip-path:url(#SVGID_28_);}
	.st25{clip-path:url(#SVGID_30_);}
	.st26{fill:none;}
</style>
<path id="studios" class="st0" d="M96.5,49.2h1.1c0,2.1,1.2,3.2,3.8,3.2c0.7,0,1.4-0.2,2.1-0.6c0.7-0.4,1.1-1.1,1.1-1.8
	c0-1-0.8-1.7-2.4-2.1l-2.6-0.6c-1.8-0.4-2.7-1.4-2.7-2.8c0-0.8,0.3-1.5,0.8-2.1c0.9-0.9,2.1-1.3,3.3-1.2c1.1-0.1,2.2,0.3,3.1,0.9
	c0.8,0.6,1.3,1.6,1.2,2.7h-1.1c0-0.8-0.4-1.6-1-2.1c-1.3-0.8-2.9-0.9-4.2-0.2c-0.6,0.4-1,1.1-0.9,1.8c0,0.9,0.6,1.5,1.8,1.8l2.9,0.7
	c2.1,0.5,3.1,1.5,3.1,3.1c0,0.7-0.2,1.5-0.7,2c-1,1-2.4,1.5-3.8,1.4c-1.2,0.1-2.5-0.3-3.5-1C96.8,51.6,96.4,50.4,96.5,49.2z
	 M107.8,42.3v-1h9.3v1H113v10.8h-1.1V42.3L107.8,42.3z M119.8,48.9v-7.5h1.1v7.3c0,2.5,1.2,3.8,3.4,3.8c2.3,0,3.5-1.3,3.5-3.8v-7.3
	h1.1v7.5c0.2,2.3-1.4,4.3-3.7,4.5c-0.3,0-0.6,0-0.9,0c-1.3,0.1-2.6-0.4-3.5-1.3C120.1,51.1,119.8,50,119.8,48.9z M134,42.3v9.9h2.4
	c1.3,0.1,2.7-0.3,3.7-1.2c0.9-1.1,1.3-2.4,1.1-3.8c0.1-1.4-0.3-2.7-1.1-3.8c-1-0.9-2.4-1.3-3.7-1.2L134,42.3z M132.9,53.1V41.3h4.1
	c1.5-0.1,3,0.4,4,1.5c1,1.2,1.5,2.8,1.4,4.4c0.1,1.6-0.4,3.2-1.4,4.4c-1.1,1.1-2.5,1.6-4,1.5L132.9,53.1z M145.9,53.1V41.3h1.1v11.8
	L145.9,53.1z M150.5,47.2c-0.1-1.5,0.4-3.1,1.4-4.3c2.1-2.3,5.6-2.5,7.9-0.4c0.1,0.1,0.3,0.3,0.4,0.4c1,1.2,1.4,2.7,1.4,4.3
	c0.1,1.5-0.4,3.1-1.4,4.3c-2,2.3-5.6,2.5-7.9,0.5c-0.2-0.1-0.3-0.3-0.5-0.5C150.9,50.3,150.5,48.8,150.5,47.2L150.5,47.2z
	 M151.6,47.2c-0.1,1.3,0.3,2.5,1,3.5c1.5,1.9,4.2,2.2,6.1,0.7c0.3-0.2,0.5-0.4,0.7-0.7c0.7-1,1.1-2.3,1-3.5c0-1.3-0.3-2.5-1-3.6
	c-1.5-1.9-4.2-2.2-6.1-0.7c-0.2,0.2-0.5,0.4-0.7,0.7C151.9,44.7,151.6,46,151.6,47.2L151.6,47.2z M164.4,49.3h1.1
	c-0.1,2.1,1.2,3.2,3.8,3.2c0.7,0,1.4-0.2,2.1-0.6c0.7-0.4,1.1-1.1,1.1-1.8c0-1-0.8-1.7-2.4-2.1l-2.6-0.6c-1.8-0.5-2.7-1.4-2.7-2.9
	c0-0.8,0.3-1.5,0.8-2.1c0.9-0.9,2.1-1.4,3.3-1.3c1.1-0.1,2.2,0.3,3.1,0.9c0.8,0.7,1.3,1.7,1.2,2.7h-1.1c0-0.8-0.4-1.6-1-2.1
	c-1.3-0.8-2.9-0.9-4.2-0.2c-0.6,0.4-1,1.1-0.9,1.8c0,0.9,0.6,1.5,1.8,1.8l2.9,0.7c2.1,0.5,3.1,1.5,3.1,3.1c0,0.7-0.2,1.4-0.7,2
	c-1,1-2.4,1.5-3.8,1.4c-1.2,0.1-2.4-0.3-3.4-1C164.8,51.5,164.3,50.4,164.4,49.3L164.4,49.3z"/>
<path id="shaepshifter" class="st0" d="M96.5,30.7h1.7c-0.1,3.2,1.9,4.7,5.8,4.7c1.1,0,2.2-0.3,3.1-0.8c1-0.5,1.6-1.6,1.6-2.7
	c0-1.5-1.2-2.6-3.6-3.2l-3.9-1c-2.6-0.6-4-2.1-4-4.2c0-1.2,0.4-2.3,1.2-3.1c1.3-1.3,3.1-2,4.9-1.8c1.6-0.1,3.2,0.4,4.6,1.4
	c1.3,1,2,2.5,2,4.1h-1.7c0-1.2-0.6-2.3-1.5-3c-1-0.7-2.1-1.1-3.3-1c-1.1-0.1-2.2,0.2-3.1,0.8c-0.9,0.6-1.4,1.7-1.4,2.7
	c0,1.4,0.9,2.2,2.7,2.7l4.3,1c3.1,0.8,4.6,2.3,4.6,4.6c0,1.1-0.3,2.1-1,3c-1.1,1.4-3,2.1-5.7,2.1c-1.8,0.1-3.7-0.4-5.2-1.5
	C97.1,34.2,96.3,32.5,96.5,30.7z M115.4,36.5V18.9h1.7v7.7h10.5v-7.7h1.7v17.7h-1.7V28h-10.5v8.6H115.4z M133.4,36.5l7.1-17.7h1.9
	l6.9,17.7h-1.8l-2.2-5.5h-8l-2.1,5.5H133.4z M141.4,20.6l-3.5,9.1h7L141.4,20.6z M153.4,36.5V18.9h7.8c1.4-0.1,2.8,0.4,3.8,1.3
	c1,1,1.5,2.3,1.4,3.7c0.1,1.4-0.4,2.7-1.4,3.7c-1,0.9-2.4,1.4-3.8,1.3h-6.2v7.6H153.4z M155.1,20.3v7.2h5.8c1,0.1,2.1-0.3,2.9-0.9
	c0.7-0.7,1.1-1.7,1-2.7c0.1-1-0.3-2-1.1-2.7c-0.8-0.6-1.8-0.9-2.8-0.9L155.1,20.3z M171.5,36.5V18.9h12.2v1.4h-10.5v6.4h9.8v1.4
	h-9.8v7h10.6v1.4H171.5z M187.4,30.7h3.8c-0.1,1,0.4,1.9,1.2,2.5c0.8,0.5,1.8,0.8,2.7,0.7c0.8,0,1.5-0.1,2.2-0.4
	c0.7-0.3,1.2-1,1.2-1.8c0-1-0.9-1.8-2.7-2.3c-3.1-0.9-4.8-1.4-5.1-1.5c-1.7-0.7-2.8-2.3-2.7-4.1c-0.1-1.6,0.7-3.1,2.1-4
	c1.3-0.9,2.9-1.4,4.5-1.3c1.7-0.1,3.5,0.4,4.9,1.3c1.4,1,2.2,2.6,2.2,4.3h-3.8c-0.1-1.8-1.3-2.7-3.5-2.7c-0.6,0-1.3,0.1-1.8,0.4
	c-0.6,0.3-0.9,0.9-0.9,1.6c0,0.6,0.4,1.2,1,1.4c1.4,0.5,2.8,1,4.3,1.3c1.1,0.2,2.1,0.6,3.1,1.2c1.4,0.8,2.2,2.4,2.2,4
	c0.1,1.6-0.6,3.1-1.9,4.1c-1.6,1.1-3.5,1.7-5.5,1.6c-1.9,0.1-3.7-0.5-5.2-1.5C188.2,34.4,187.3,32.6,187.4,30.7z M207,36.5V18.9h3.9
	v6.8h7.2v-6.8h3.9v17.7h-3.9v-7.6h-7.2v7.6H207z M227.8,36.5V18.9h3.9v17.7H227.8z M237.6,36.5V18.9H250v3.3h-8.5v4.1h7.4v3h-7.4
	v7.3L237.6,36.5z M258.7,36.5V22.1h-5.2v-3.2h14.4v3.3h-5.3v14.4L258.7,36.5z M272.3,36.5V18.9h13.2v3.3h-9.3v3.8h8.6v3h-8.6v4.3
	h9.5v3.3L272.3,36.5z M290.9,36.5V18.9h9.5c1.4-0.1,2.8,0.5,3.8,1.4c0.9,0.9,1.4,2.2,1.4,3.4c0.2,1.9-1,3.8-2.8,4.4l0,0
	c1.5,0.4,2.4,1.8,2.6,4.1l0.1,2.1c0,0.7,0.2,1.4,0.6,2.1h-3.9c-0.2-0.6-0.4-1.3-0.4-2l-0.2-2.2c0-0.8-0.3-1.5-0.9-2.1
	c-0.6-0.5-1.3-0.7-2.1-0.6h-3.9v6.9L290.9,36.5z M294.8,21.9v5h4.3c1.8,0,2.7-0.8,2.7-2.5c0-1.7-0.9-2.5-2.7-2.5H294.8z"/>
<g id="logo">
	<path class="st1" d="M9.1,49.2L2,53.7l31.7,18.1l-0.2-10L9.1,49.2z"/>
	<path class="st1" d="M51.2,21.3l-38.6,23l29,16.4L81,38.6L51.2,21.3z"/>
	<path class="st2" d="M12,37.1l9-5.1v7.5l-9,5.1V37.1z"/>
	<path class="st2" d="M48.3,9.8L28.8,20.9v10.5l19.4-11L48.3,9.8z"/>
	<g>
		<defs>
			<rect id="SVGID_1_" x="0.7" y="0.7" width="82.1" height="85.9"/>
		</defs>
		<clipPath id="SVGID_2_">
			<use xlink:href="#SVGID_1_"  style="overflow:visible;"/>
		</clipPath>
		<g class="st3">
			<g>
				<defs>
					<rect id="SVGID_3_" x="15.9" y="14.7" width="32.4" height="28.4"/>
				</defs>
				<clipPath id="SVGID_4_">
					<use xlink:href="#SVGID_3_"  style="overflow:visible;"/>
				</clipPath>
				<g class="st4">
					<path class="st5" d="M18.2,14.7l30.1,17.9v10.5L15.9,24l0.1-7.2L18.2,14.7z"/>
				</g>
			</g>
		</g>
	</g>
	<path class="st2" d="M80.7,23.1l-11.2,6.4l0.1,10.5l11.3-6.5l1.6-2.5v-6.3L80.7,23.1z"/>
	<g>
		<defs>
			<rect id="SVGID_5_" x="0.7" y="0.7" width="82.1" height="85.9"/>
		</defs>
		<clipPath id="SVGID_6_">
			<use xlink:href="#SVGID_5_"  style="overflow:visible;"/>
		</clipPath>
		<g class="st6">
			<g>
				<defs>
					<rect id="SVGID_7_" x="41.9" y="13.4" width="27.7" height="26.5"/>
				</defs>
				<clipPath id="SVGID_8_">
					<use xlink:href="#SVGID_7_"  style="overflow:visible;"/>
				</clipPath>
				<g class="st7">
					<path class="st5" d="M42,13.5l27.5,16v10.5L41.9,23.7V13.4L42,13.5z"/>
				</g>
			</g>
		</g>
	</g>
	<path class="st2" d="M41.6,60.6l39.4-22l1.3,2.4v20l-1.3,2.9L41.5,86.2L41.6,60.6z"/>
	<g>
		<defs>
			<rect id="SVGID_9_" x="0.7" y="0.7" width="82.1" height="85.9"/>
		</defs>
		<clipPath id="SVGID_10_">
			<use xlink:href="#SVGID_9_"  style="overflow:visible;"/>
		</clipPath>
		<g class="st8">
			<g>
				<defs>
					<rect id="SVGID_11_" x="1" y="23.8" width="40.7" height="62.4"/>
				</defs>
				<clipPath id="SVGID_12_">
					<use xlink:href="#SVGID_11_"  style="overflow:visible;"/>
				</clipPath>
				<g class="st9">
					<path class="st5" d="M3.1,23.8L26.9,37l-0.2,9.8l-14.3-8v5.6l29.3,16.4l-0.1,25.4l-39.2-22l-1.4-3v-6l1-1.5l29.5,16.7v-5.6
						l-29-16.5L1,45.1V25.8L3.1,23.8z"/>
				</g>
			</g>
			<g>
				<defs>
					<rect id="SVGID_13_" x="33.3" y="32.8" width="10" height="7.2"/>
				</defs>
				<clipPath id="SVGID_14_">
					<use xlink:href="#SVGID_13_"  style="overflow:visible;"/>
				</clipPath>
				<g class="st10">
					<path class="st11" d="M33.3,32.8l8.7,4.6l1.3,2.6l-8.7-4.8L33.3,32.8z"/>
				</g>
			</g>
		</g>
	</g>
	<path class="st1" d="M26.6,36.9l8.1-4.8L12.3,19.3h-1.4l-7.8,4.5L26.6,36.9z"/>
	<g>
		<defs>
			<rect id="SVGID_15_" x="0.7" y="0.7" width="82.1" height="85.9"/>
		</defs>
		<clipPath id="SVGID_16_">
			<use xlink:href="#SVGID_15_"  style="overflow:visible;"/>
		</clipPath>
		<g class="st12">
			<g>
				<defs>
					<rect id="SVGID_17_" x="59.7" y="32.7" width="9.9" height="7.3"/>
				</defs>
				<clipPath id="SVGID_18_">
					<use xlink:href="#SVGID_17_"  style="overflow:visible;"/>
				</clipPath>
				<g class="st13">
					<path class="st11" d="M59.7,32.7l8.3,4.7l1.5,2.6L61,35L59.7,32.7z"/>
				</g>
			</g>
		</g>
	</g>
	<path class="st2" d="M34.7,32.1l1.8,1.7v7.3l-9.8,5.8l-0.1-9.9L34.7,32.1z"/>
	<path class="st14" d="M37,39v1.8L26.7,47l1.4-2.6L37,39z"/>
	<g>
		<defs>
			<rect id="SVGID_19_" x="0.7" y="0.7" width="82.1" height="85.9"/>
		</defs>
		<clipPath id="SVGID_20_">
			<use xlink:href="#SVGID_19_"  style="overflow:visible;"/>
		</clipPath>
		<g class="st15">
			<g>
				<defs>
					<rect id="SVGID_21_" x="31.8" y="40.7" width="10" height="14.9"/>
				</defs>
				<clipPath id="SVGID_22_">
					<use xlink:href="#SVGID_21_"  style="overflow:visible;"/>
				</clipPath>
				<g class="st16">
					<path class="st5" d="M34,40.7l7.9,4.4l0.1,10.5l-9-5.1l-1-2.3v-5.4L34,40.7z"/>
				</g>
			</g>
		</g>
	</g>
	<path class="st2" d="M63.4,32.8L41.7,45.2l0.1,10.5l21.7-12.4l1.7-2.7v-6L63.4,32.8z"/>
	<path class="st17" d="M38.3,18.6l3.5-2.1v-3.1L35.7,17L38.3,18.6z"/>
	<path class="st17" d="M43.1,63l39.2-22L81,38.6l-39.4,22L43.1,63z"/>
	<path class="st17" d="M43.3,47.1l22-12.6l-1.8-1.8L41.8,45L43.3,47.1z"/>
	<path class="st17" d="M34.7,32.1l1.8,1.7l-8.4,5.1l-1.5-2.2L34.7,32.1z"/>
	<path class="st17" d="M80.8,23l-11.3,6.4l1.6,2l11.4-6.7L80.8,23z"/>
	<path class="st11" d="M1,45.1l31.7,17.7l-1.2,2l-29-16.4L1,45.1z"/>
	<path class="st11" d="M10.4,36l14.9,8.5l1.4,2.5l-14.1-8L10.4,36z"/>
	<path class="st11" d="M1,61.2l39.2,21.9l1.4,3.2l-39.2-22L1,61.2z"/>
	<path class="st11" d="M31.8,48.2l8.5,4.8l1.5,2.6l-9-5.1L31.8,48.2z"/>
	<path class="st14" d="M43.1,83.1l39.2-22l-1.3,2.9L41.6,86.2L43.1,83.1z"/>
	<path class="st18" d="M40.3,47h2.8l0.1,0.1V53l-0.1,0.2h-2.7L40.3,53V47z"/>
	<path class="st18" d="M40.2,63h2.9v20L43,83.3h-2.6l-0.1-0.3V63z"/>
	<path class="st5" d="M10.4,36l2.2,2.9v7.4h-2.2V36z"/>
	<path class="st5" d="M32.7,62.8l0.2,10.4l-1.4-3v-5.4L32.7,62.8z"/>
	<path class="st19" d="M45.8,34.5L16,16.8l2-2.1l30.4,18.2L45.8,34.5z"/>
	<path class="st19" d="M32.8,73.2L1,55.2l1-1.5l29.4,16.5L32.8,73.2z"/>
	<path class="st19" d="M40.2,63L10.4,46.3l2.2-2.1l29,16.4L40.2,63z"/>
	<path class="st19" d="M25.2,38.9L1,25.8l2-2l23.6,12.9L25.2,38.9z"/>
	<path class="st19" d="M68.2,31.5l-26.4-15v-3.1l27.7,16L68.2,31.5z"/>
	<path class="st19" d="M34,40.7l7.8,4.3l-1.4,2.1l-8.5-4.4L34,40.7z"/>
	<path class="st20" d="M40.3,53l1.5,2.7l1.4-2.7H40.3z"/>
	<path class="st20" d="M40.2,83.1l1.4,3.2l1.5-3.2H40.2z"/>
	<g>
		<defs>
			<rect id="SVGID_23_" x="0.7" y="0.7" width="82.1" height="85.9"/>
		</defs>
		<clipPath id="SVGID_24_">
			<use xlink:href="#SVGID_23_"  style="overflow:visible;"/>
		</clipPath>
		<g class="st21">
			<g>
				<defs>
					<rect id="SVGID_25_" x="25.2" y="38.2" width="2.9" height="6.2"/>
				</defs>
				<clipPath id="SVGID_26_">
					<use xlink:href="#SVGID_25_"  style="overflow:visible;"/>
				</clipPath>
				<g class="st22">
					<path class="st18" d="M25.7,38.2h1.9l0.5,0.7v5.5h-2.9v-5.5L25.7,38.2z"/>
				</g>
			</g>
		</g>
	</g>
	<path class="st20" d="M25.2,44.4l1.5,2.6l1.4-2.6L25.2,44.4z"/>
	<path class="st23" d="M40.2,63l1.5-2.4l1.5,2.4H40.2z"/>
	<path class="st23" d="M40.3,47.1l1.5-2.1l1.5,2.1L40.3,47.1z"/>
	<path class="st23" d="M25.2,38.9l1.5-2.2l1.5,2.2L25.2,38.9z"/>
	<path class="st1" d="M41.7,1L18,14.6l30.2,18.1l-14.2,8l7.8,4.3l21.7-12.3L36,16.9l5.9-3.4l27.6,16L80.8,23L42.7,1H41.7z"/>
	<path class="st14" d="M43.3,53l-1.4,2.6l21.7-12.4l1.7-2.7L43.3,53z"/>
	<g>
		<defs>
			<rect id="SVGID_27_" x="0.7" y="0.7" width="82.1" height="85.9"/>
		</defs>
		<clipPath id="SVGID_28_">
			<use xlink:href="#SVGID_27_"  style="overflow:visible;"/>
		</clipPath>
		<g class="st24">
			<g>
				<defs>
					<rect id="SVGID_29_" x="68" y="31.4" width="3" height="6.7"/>
				</defs>
				<clipPath id="SVGID_30_">
					<use xlink:href="#SVGID_29_"  style="overflow:visible;"/>
				</clipPath>
				<g class="st25">
					<path class="st18" d="M68,31.4h3v5.9l-0.5,0.8h-2L68,37.3V31.4z"/>
				</g>
			</g>
		</g>
	</g>
	<path class="st20" d="M68,37.3l1.5,2.6l1.5-2.6L68,37.3z"/>
	<path class="st23" d="M71.1,31.4l-1.5-1.9l-1.5,2L71.1,31.4z"/>
	<path class="st26" d="M41.6,86.2l39.3-22.3l1.3-2.9V41L81,38.6L76.5,36l4.4-2.5l1.6-2.5v-6.3L80.8,23L42.7,1h-0.9L18,14.6l-2,2.1
		v4.7l-3.7-2.2h-1.4l-7.8,4.5l-2,2L1,45.1l1.4,3.3l4.2,2.4L2,53.7l-1,1.5v6l1.4,3L41.6,86.2z"/>
	<path class="st0" d="M41.6,86.2l39.3-22.3l1.3-2.9V41L81,38.6L76.5,36l4.4-2.5l1.6-2.5v-6.3L80.8,23L42.7,1h-0.9L18,14.6l-2,2.1
		v4.7l-3.7-2.1h-1.4l-7.8,4.5l-2,2L1,45.1l1.4,3.3l4.2,2.4L2,53.7l-1,1.5v6l1.4,3L41.6,86.2 M41.6,87.3l-0.5-0.3l-39.2-22l-0.3-0.2
		l-0.1-0.3l-1.4-3L0,61.4v-6.5l0.2-0.3l1-1.5L1.2,53l0.2-0.1l3.2-2l-2.8-1.6l-0.3-0.2l-0.1-0.3l-1.4-3.3L0,45.3v-0.2V25.8v-0.4
		l0.3-0.3l2-2L2.4,23L2.5,23l7.8-4.5l0.2-0.1h1.9l0.2,0.1l2.3,1.2v-3.4l0.3-0.3l2-2.1l0.1-0.1l0.1-0.1L41.2,0.2L41.5,0h0.3h0.9h0.3
		l0.2,0.1l38.2,22l0.1,0.1l0.1,0.1l1.7,1.8l0.3,0.3v6.9l-0.2,0.3L81.7,34l-0.1,0.2l-0.2,0.1L78.5,36l3,1.8l0.3,0.1l0.1,0.3l1.3,2.4
		l0.1,0.2v20.5l-0.1,0.2l-1.3,2.9l-0.1,0.3l-0.3,0.2L42.1,87.1L41.6,87.3z"/>
</g>
<g id="subtext">
	<path class="st0" d="M97.9,64.5h-1.5v2.6h-0.9v-6.5h2.2c0.6,0,1.2,0.1,1.7,0.5c0.4,0.4,0.6,0.9,0.6,1.5c0,0.4-0.1,0.7-0.3,1
		c-0.2,0.3-0.5,0.6-0.9,0.7l1.5,2.8v0.1h-0.9L97.9,64.5z M96.4,63.7h1.3c0.4,0,0.7-0.1,1-0.3c0.3-0.2,0.4-0.5,0.4-0.9
		c0-0.3-0.1-0.7-0.4-0.9c-0.3-0.2-0.7-0.3-1-0.3h-1.3L96.4,63.7z"/>
	<path class="st0" d="M104.9,64.1H102v2.3h3.3v0.7h-4.2v-6.5h4.2v0.7h-3.3v2.1h2.8L104.9,64.1z"/>
	<path class="st0" d="M110,65.4h-2.7l-0.6,1.7h-0.9l2.5-6.5h0.7l2.5,6.5h-0.9L110,65.4z M107.5,64.7h2.2l-1.1-3.1L107.5,64.7z"/>
	<path class="st0" d="M113.3,66.4h3.1v0.7h-4v-6.5h0.9L113.3,66.4z"/>
	<path class="st0" d="M124,61.3h-2.1v5.8H121v-5.8h-2.1v-0.7h5.1L124,61.3z"/>
	<path class="st0" d="M125.9,67.1H125v-6.5h0.9V67.1z"/>
	<path class="st0" d="M128.5,60.6l2.1,5.3l2.1-5.3h1.1v6.5h-0.9v-2.6l0.1-2.8l-2.1,5.3h-0.6l-2.1-5.3l0.1,2.7v2.5h-0.9v-6.5H128.5z"
		/>
	<path class="st0" d="M139.2,64.1h-2.8v2.3h3.3v0.7h-4.2v-6.5h4.1v0.7h-3.2v2.1h2.8V64.1z"/>
	<path class="st0" d="M143.9,64.5v2.6H143v-6.5h2.4c0.6,0,1.2,0.2,1.7,0.5c0.4,0.4,0.6,0.9,0.6,1.5c0,0.6-0.2,1.1-0.6,1.5
		c-0.5,0.4-1.1,0.6-1.7,0.5H143.9z M143.9,63.8h1.5c0.4,0,0.7-0.1,1-0.3c0.3-0.2,0.4-0.6,0.4-0.9c0-0.4-0.1-0.7-0.4-0.9
		c-0.3-0.3-0.7-0.4-1-0.4h-1.5V63.8z"/>
	<path class="st0" d="M151.2,64.5h-1.5v2.6h-0.9v-6.5h2.2c0.6,0,1.2,0.1,1.7,0.5c0.4,0.4,0.6,0.9,0.6,1.5c0,0.4-0.1,0.7-0.3,1
		c-0.2,0.3-0.5,0.6-0.9,0.7l1.5,2.8v0.1h-0.9L151.2,64.5z M149.6,63.7h1.3c0.4,0,0.7-0.1,1-0.3c0.3-0.2,0.4-0.5,0.4-0.9
		c0-0.3-0.1-0.7-0.4-0.9c-0.3-0.2-0.7-0.3-1-0.3h-1.3L149.6,63.7z"/>
	<path class="st0" d="M159.5,64c0,0.6-0.1,1.1-0.3,1.7c-0.2,0.4-0.5,0.8-0.9,1.1c-0.9,0.5-1.9,0.5-2.8,0c-0.4-0.3-0.7-0.6-0.9-1
		c-0.2-0.5-0.3-1.1-0.3-1.6v-0.5c0-0.6,0.1-1.1,0.3-1.7c0.2-0.5,0.5-0.8,0.9-1.1c0.4-0.3,0.9-0.4,1.4-0.4c0.5,0,1,0.1,1.4,0.4
		c0.4,0.2,0.7,0.6,0.9,1c0.2,0.5,0.3,1.1,0.3,1.7L159.5,64z M158.6,63.6c0-0.6-0.1-1.3-0.5-1.8c-0.6-0.7-1.6-0.8-2.3-0.3
		c-0.1,0.1-0.2,0.2-0.3,0.3c-0.3,0.5-0.5,1.1-0.5,1.7V64c0,0.6,0.1,1.2,0.5,1.8c0.3,0.4,0.8,0.7,1.3,0.6c0.5,0,1-0.2,1.3-0.6
		c0.3-0.5,0.5-1.1,0.5-1.7V63.6z"/>
	<path class="st0" d="M160.8,67.1v-6.5h1.8c0.5,0,1.1,0.1,1.5,0.4c0.4,0.2,0.8,0.6,1,1c0.2,0.5,0.4,1,0.4,1.6V64
		c0,0.6-0.1,1.1-0.4,1.6c-0.2,0.4-0.6,0.8-1,1c-0.5,0.3-1,0.4-1.5,0.4L160.8,67.1z M161.6,61.3v5.1h0.9c0.6,0,1.2-0.2,1.5-0.6
		c0.4-0.5,0.6-1.1,0.6-1.8v-0.4c0-0.6-0.1-1.2-0.5-1.7c-0.4-0.4-0.9-0.7-1.5-0.6L161.6,61.3z"/>
	<path class="st0" d="M171.4,60.6V65c0,0.6-0.2,1.1-0.6,1.5c-0.4,0.4-1,0.6-1.6,0.7H169c-0.6,0-1.2-0.2-1.7-0.6
		c-0.4-0.4-0.7-1-0.6-1.6v-4.4h0.9V65c-0.1,0.7,0.5,1.4,1.2,1.5c0.1,0,0.2,0,0.3,0c0.4,0,0.8-0.1,1.1-0.4c0.3-0.3,0.4-0.7,0.4-1.1
		v-4.4H171.4z"/>
	<path class="st0" d="M177.6,65c0,0.6-0.3,1.2-0.8,1.6c-0.5,0.4-1.1,0.6-1.7,0.6c-0.7,0-1.4-0.3-1.8-0.8c-0.5-0.6-0.7-1.4-0.7-2.2
		v-0.6c0-0.6,0.1-1.1,0.3-1.6c0.2-0.4,0.5-0.8,0.9-1c0.4-0.3,0.9-0.4,1.4-0.4c0.6,0,1.2,0.2,1.7,0.6c0.4,0.4,0.7,1,0.7,1.6h-0.9
		c0-0.4-0.2-0.8-0.5-1.1c-0.3-0.3-0.7-0.4-1-0.4c-0.5,0-1,0.2-1.3,0.6c-0.3,0.5-0.5,1.1-0.5,1.7v0.6c0,0.6,0.1,1.2,0.4,1.7
		c0.3,0.4,0.7,0.6,1.2,0.6c0.4,0,0.8-0.1,1.1-0.3c0.3-0.3,0.5-0.7,0.5-1.1L177.6,65z"/>
	<path class="st0" d="M183.1,61.3H181v5.8h-0.9v-5.8h-2.1v-0.7h5.1L183.1,61.3z"/>
	<path class="st0" d="M185,67.1h-0.9v-6.5h0.9V67.1z"/>
	<path class="st0" d="M191.6,64c0,0.6-0.1,1.1-0.3,1.7c-0.2,0.4-0.5,0.8-0.9,1.1c-0.9,0.5-1.9,0.5-2.8,0c-0.4-0.3-0.7-0.6-0.9-1
		c-0.2-0.5-0.3-1.1-0.3-1.6v-0.5c0-0.6,0.1-1.1,0.3-1.7c0.2-0.5,0.5-0.8,0.9-1.1c0.4-0.3,0.9-0.4,1.4-0.4c0.5,0,1,0.1,1.4,0.4
		c0.4,0.2,0.7,0.6,0.9,1c0.2,0.5,0.3,1.1,0.3,1.7L191.6,64z M190.8,63.6c0-0.6-0.1-1.3-0.5-1.8c-0.6-0.7-1.6-0.8-2.3-0.3
		c-0.1,0.1-0.2,0.2-0.3,0.3c-0.3,0.5-0.5,1.1-0.5,1.7V64c0,0.6,0.1,1.2,0.5,1.8c0.3,0.4,0.8,0.7,1.3,0.6c0.5,0,1-0.2,1.3-0.6
		c0.3-0.5,0.5-1.1,0.5-1.7V63.6z"/>
	<path class="st0" d="M197.9,67.1h-0.9l-3.3-5v5h-0.9v-6.5h0.9l3.3,5.1v-5.1h0.9V67.1z"/>
	<path class="st0" d="M202.4,68.3h-0.7v-7.8h0.7V68.3z"/>
	<path class="st0" d="M208.7,64.5h-1.5v2.6h-0.9v-6.5h2.2c0.6,0,1.2,0.1,1.7,0.5c0.4,0.4,0.6,0.9,0.6,1.5c0,0.4-0.1,0.7-0.3,1
		c-0.2,0.3-0.5,0.6-0.9,0.7L211,67v0.1h-0.9L208.7,64.5z M207.1,63.7h1.3c0.4,0,0.7-0.1,1-0.3c0.3-0.2,0.4-0.5,0.4-0.9
		c0-0.3-0.1-0.7-0.4-0.9c-0.3-0.2-0.7-0.3-1-0.3h-1.3L207.1,63.7z"/>
	<path class="st0" d="M212.8,67.1H212v-6.5h0.9V67.1z"/>
	<path class="st0" d="M219.2,66.2c-0.2,0.3-0.6,0.6-0.9,0.7c-0.4,0.2-0.9,0.2-1.4,0.2c-0.5,0-1-0.1-1.4-0.4c-0.4-0.3-0.7-0.6-1-1
		c-0.2-0.5-0.4-1.1-0.3-1.6v-0.6c-0.1-0.8,0.2-1.6,0.7-2.3c0.5-0.6,1.2-0.9,1.9-0.8c0.6,0,1.2,0.2,1.7,0.5c0.4,0.4,0.7,0.9,0.8,1.5
		h-0.9c-0.1-0.8-0.8-1.4-1.5-1.3c-0.5,0-1,0.2-1.3,0.6c-0.3,0.5-0.5,1.1-0.4,1.8V64c0,0.6,0.1,1.2,0.5,1.7c0.3,0.4,0.8,0.7,1.4,0.7
		c0.3,0,0.6,0,0.9-0.1c0.2-0.1,0.4-0.2,0.6-0.4v-1.4h-1.5v-0.7h2.4L219.2,66.2z"/>
	<path class="st0" d="M225.5,66.2c-0.2,0.3-0.6,0.6-0.9,0.7c-0.4,0.2-0.9,0.2-1.4,0.2c-0.5,0-1-0.1-1.4-0.4c-0.4-0.2-0.7-0.6-1-1
		c-0.2-0.5-0.4-1.1-0.4-1.6v-0.6c-0.1-0.8,0.2-1.6,0.7-2.3c0.5-0.6,1.2-0.9,1.9-0.8c0.6,0,1.2,0.2,1.7,0.5c0.4,0.4,0.7,0.9,0.8,1.5
		h-0.9c-0.1-0.8-0.8-1.4-1.5-1.3c-0.5,0-1,0.2-1.3,0.6c-0.3,0.5-0.5,1.1-0.4,1.8V64c0,0.6,0.1,1.2,0.5,1.7c0.3,0.4,0.8,0.7,1.4,0.7
		c0.3,0,0.6,0,0.9-0.1c0.2-0.1,0.4-0.2,0.6-0.4v-1.4h-1.5v-0.7h2.4L225.5,66.2z"/>
	<path class="st0" d="M227.9,67.1H227v-6.5h0.9L227.9,67.1z"/>
	<path class="st0" d="M234.5,67.1h-0.9l-3.3-5v5h-0.9v-6.5h0.9l3.3,5.1v-5.1h0.9V67.1z"/>
	<path class="st0" d="M240.8,66.2c-0.2,0.3-0.6,0.6-0.9,0.7c-0.4,0.2-0.9,0.2-1.4,0.2c-0.5,0-1-0.1-1.4-0.4c-0.4-0.2-0.8-0.6-1-1
		c-0.2-0.5-0.3-1.1-0.3-1.6v-0.6c-0.1-0.8,0.2-1.6,0.7-2.3c0.5-0.6,1.2-0.9,1.9-0.8c0.6,0,1.2,0.2,1.6,0.5c0.4,0.4,0.7,0.9,0.8,1.5
		H240c-0.1-0.8-0.7-1.4-1.5-1.3c-0.5,0-1,0.2-1.3,0.6c-0.3,0.5-0.5,1.1-0.5,1.8v0.5c0,0.6,0.1,1.2,0.5,1.7c0.3,0.4,0.8,0.7,1.4,0.7
		c0.3,0,0.6,0,0.8-0.1c0.2-0.1,0.4-0.2,0.6-0.4v-1.5h-1.5v-0.7h2.4L240.8,66.2z"/>
	<path class="st0" d="M244.3,65.3c0-0.3,0.1-0.6,0.3-0.9c0.3-0.4,0.6-0.7,1-0.9c-0.2-0.3-0.4-0.5-0.6-0.9c-0.1-0.2-0.1-0.4-0.1-0.6
		c0-0.4,0.1-0.9,0.4-1.2c0.3-0.3,0.8-0.4,1.2-0.4c0.4,0,0.8,0.1,1.1,0.4c0.3,0.3,0.5,0.6,0.4,1c0,0.3-0.1,0.5-0.2,0.7
		c-0.2,0.3-0.4,0.5-0.7,0.7l-0.5,0.4l1.5,1.7c0.2-0.4,0.3-0.8,0.3-1.3h0.7c0,0.7-0.2,1.3-0.6,1.9l0.9,1.1h-1l-0.4-0.5
		c-0.2,0.2-0.5,0.4-0.8,0.5c-0.3,0.1-0.6,0.1-0.9,0.1c-0.6,0-1.1-0.2-1.5-0.5C244.4,66.4,244.2,65.9,244.3,65.3z M246.3,66.5
		c0.5,0,0.9-0.2,1.2-0.5l-1.6-1.9l-0.1,0.1c-0.4,0.2-0.7,0.7-0.7,1.1c0,0.3,0.1,0.6,0.3,0.9C245.7,66.4,246,66.5,246.3,66.5
		L246.3,66.5z M245.6,62c0.1,0.4,0.2,0.8,0.5,1l0.5-0.4c0.2-0.1,0.3-0.2,0.4-0.4c0.1-0.1,0.1-0.3,0.1-0.5c0-0.2-0.1-0.4-0.2-0.5
		c-0.2-0.1-0.4-0.2-0.6-0.2c-0.2,0-0.4,0.1-0.6,0.2C245.7,61.6,245.6,61.8,245.6,62L245.6,62z"/>
	<path class="st0" d="M256.9,61.3h-2.1v5.8H254v-5.8h-2.1v-0.7h5.1L256.9,61.3z"/>
	<path class="st0" d="M257.9,67.1v-6.5h1.8c0.5,0,1.1,0.1,1.5,0.4c0.4,0.2,0.8,0.6,1,1c0.2,0.5,0.4,1,0.4,1.6V64
		c0,0.6-0.1,1.1-0.4,1.6c-0.2,0.4-0.6,0.8-1,1c-0.5,0.3-1,0.4-1.5,0.4L257.9,67.1z M258.7,61.3v5.1h0.9c0.6,0,1.2-0.2,1.5-0.6
		c0.4-0.5,0.6-1.1,0.6-1.8v-0.4c0-0.6-0.1-1.2-0.5-1.7c-0.4-0.4-0.9-0.7-1.5-0.6L258.7,61.3z"/>
	<path class="st0" d="M268.1,64.2c-0.6-0.1-1.1-0.4-1.6-0.8c-0.3-0.3-0.5-0.7-0.5-1.1c0-0.5,0.2-1,0.6-1.3c0.5-0.4,1-0.5,1.6-0.5
		c0.4,0,0.8,0.1,1.2,0.3c0.3,0.2,0.6,0.4,0.8,0.7c0.2,0.3,0.3,0.7,0.3,1h-0.9c0-0.4-0.1-0.7-0.4-0.9c-0.3-0.2-0.7-0.4-1-0.3
		c-0.4,0-0.7,0.1-1,0.3c-0.2,0.2-0.4,0.5-0.4,0.8c0,0.3,0.1,0.5,0.3,0.7c0.3,0.2,0.7,0.4,1.2,0.5c0.4,0.1,0.9,0.3,1.3,0.5
		c0.3,0.2,0.5,0.4,0.7,0.6c0.2,0.3,0.2,0.6,0.2,0.9c0,0.5-0.2,1-0.6,1.3c-0.5,0.3-1.1,0.5-1.7,0.5c-0.4,0-0.9-0.1-1.3-0.2
		c-0.4-0.2-0.7-0.4-0.9-0.7c-0.2-0.3-0.3-0.7-0.3-1h0.9c0,0.4,0.1,0.7,0.4,0.9c0.3,0.2,0.8,0.4,1.2,0.3c0.4,0,0.7-0.1,1-0.3
		c0.2-0.2,0.4-0.5,0.4-0.8c0-0.3-0.1-0.6-0.3-0.7C268.9,64.5,268.5,64.3,268.1,64.2z"/>
	<path class="st0" d="M275.3,64.1h-2.8v2.3h3.3v0.7h-4.2v-6.5h4.2v0.7h-3.3v2.1h2.8L275.3,64.1z"/>
	<path class="st0" d="M279.2,64.5h-1.5v2.6h-0.8v-6.5h2.1c0.6,0,1.2,0.1,1.7,0.5c0.4,0.4,0.6,0.9,0.6,1.5c0,0.4-0.1,0.7-0.3,1
		c-0.2,0.3-0.5,0.6-0.9,0.7l1.5,2.8v0.1h-0.9L279.2,64.5z M277.7,63.7h1.3c0.4,0,0.7-0.1,1-0.3c0.3-0.2,0.4-0.5,0.4-0.9
		c0-0.3-0.1-0.7-0.4-0.9c-0.3-0.2-0.7-0.3-1-0.3h-1.3L277.7,63.7z"/>
	<path class="st0" d="M284.6,66l1.9-5.4h0.9l-2.4,6.5h-0.8l-2.4-6.5h0.9L284.6,66z"/>
	<path class="st0" d="M289.2,67.1h-0.9v-6.5h0.9L289.2,67.1z"/>
	<path class="st0" d="M295.6,65c0,0.6-0.3,1.2-0.8,1.6c-0.5,0.4-1.1,0.6-1.7,0.6c-0.7,0-1.4-0.3-1.9-0.8c-0.5-0.6-0.7-1.4-0.7-2.2
		v-0.6c0-0.6,0.1-1.1,0.3-1.6c0.2-0.4,0.5-0.8,0.9-1c0.4-0.3,0.9-0.4,1.4-0.4c0.6,0,1.2,0.2,1.7,0.6c0.4,0.4,0.7,1,0.7,1.6h-0.9
		c0-0.4-0.2-0.8-0.5-1.1c-0.3-0.3-0.7-0.4-1-0.4c-0.5,0-1,0.2-1.3,0.6c-0.3,0.5-0.5,1.1-0.5,1.7v0.6c0,0.6,0.1,1.2,0.4,1.7
		c0.3,0.4,0.8,0.6,1.2,0.6c0.4,0,0.8-0.1,1.1-0.3c0.3-0.3,0.5-0.7,0.5-1.1L295.6,65z"/>
	<path class="st0" d="M300.5,64.1h-2.8v2.3h3.3v0.7h-4.2v-6.5h4.1v0.7h-3.2v2.1h2.8L300.5,64.1z"/>
	<path class="st0" d="M303.9,64.2c-0.6-0.1-1.1-0.4-1.6-0.8c-0.3-0.3-0.5-0.7-0.5-1.1c0-0.5,0.2-1,0.6-1.3c0.5-0.4,1-0.5,1.6-0.5
		c0.4,0,0.8,0.1,1.2,0.3c0.3,0.2,0.6,0.4,0.8,0.7c0.2,0.3,0.3,0.7,0.3,1h-0.9c0-0.4-0.1-0.7-0.4-0.9c-0.3-0.2-0.7-0.4-1-0.3
		c-0.4,0-0.7,0.1-1,0.3c-0.2,0.2-0.4,0.5-0.4,0.8c0,0.3,0.1,0.5,0.3,0.7c0.3,0.2,0.7,0.4,1.2,0.5c0.4,0.1,0.9,0.3,1.3,0.5
		c0.3,0.2,0.5,0.4,0.7,0.6c0.2,0.3,0.2,0.6,0.2,0.9c0,0.5-0.2,1-0.6,1.3c-0.5,0.3-1.1,0.5-1.7,0.5c-0.4,0-0.9-0.1-1.3-0.2
		c-0.4-0.2-0.7-0.4-0.9-0.7c-0.2-0.3-0.3-0.7-0.3-1h0.9c0,0.4,0.1,0.7,0.4,0.9c0.3,0.2,0.8,0.4,1.2,0.3c0.4,0,0.7-0.1,1-0.3
		c0.2-0.2,0.4-0.5,0.4-0.8c0-0.3-0.1-0.6-0.3-0.7C304.7,64.5,304.3,64.3,303.9,64.2z"/>
</g>
</svg>
