<svg xmlns="http://www.w3.org/2000/svg" xmlns:xlink="http://www.w3.org/1999/xlink" width="332.69" height="87.35" viewBox="0 0 332.69 87.35"><defs><clipPath id="a" transform="translate(0 0)"><rect x="0.68" y="0.68" width="82.11" height="85.89" style="fill:none"/></clipPath><clipPath id="b" transform="translate(0 0)"><rect x="15.91" y="14.7" width="32.38" height="28.41" style="fill:none"/></clipPath><clipPath id="d" transform="translate(0 0)"><rect x="41.87" y="13.43" width="27.69" height="26.5" style="fill:none"/></clipPath><clipPath id="f" transform="translate(0 0)"><rect x="1" y="23.79" width="40.69" height="62.41" style="fill:none"/></clipPath><clipPath id="g" transform="translate(0 0)"><rect x="33.29" y="32.82" width="10.01" height="7.15" style="fill:none"/></clipPath><clipPath id="i" transform="translate(0 0)"><rect x="59.67" y="32.66" width="9.89" height="7.26" style="fill:none"/></clipPath><clipPath id="k" transform="translate(0 0)"><rect x="31.84" y="40.72" width="10.04" height="14.9" style="fill:none"/></clipPath><clipPath id="m" transform="translate(0 0)"><rect x="25.17" y="38.22" width="2.9" height="6.16" style="fill:none"/></clipPath><clipPath id="o" transform="translate(0 0)"><rect x="68.04" y="31.42" width="3.02" height="6.66" style="fill:none"/></clipPath></defs><path d="M114.58,45h-1.13a3.47,3.47,0,0,0-1.28-2.09,3.72,3.72,0,0,0-2.32-.75,3.92,3.92,0,0,0-3.37,1.61,6.53,6.53,0,0,0,0,7.1,3.92,3.92,0,0,0,3.37,1.63,3.46,3.46,0,0,0,2.62-1.11,4.35,4.35,0,0,0,1.15-2.66h1.12a5.43,5.43,0,0,1-1.54,3.45,4.56,4.56,0,0,1-3.35,1.27,5,5,0,0,1-4.16-1.86,7.24,7.24,0,0,1,0-8.53,5.5,5.5,0,0,1,7.24-.89A4,4,0,0,1,114.58,45Zm3.52,8.21V41.4h5.39a3.92,3.92,0,0,1,2.52.74,2.74,2.74,0,0,1,1,2.32,3.27,3.27,0,0,1-.57,1.94,2.71,2.71,0,0,1-1.71,1.06v0c1.27.17,2,1,2,2.66.06.94.09,1.47.11,1.58a3.05,3.05,0,0,0,.43,1.43h-1.23a4.8,4.8,0,0,1-.31-1.83,6.73,6.73,0,0,0-.41-2.31,2,2,0,0,0-1.94-1.09h-4.26v5.23Zm1.12-10.81V47h4.18a2.63,2.63,0,0,0,1.8-.63,2.07,2.07,0,0,0,.74-1.66,2.24,2.24,0,0,0-.65-1.72,2.59,2.59,0,0,0-1.88-.62Zm11.51,10.81V41.4h8.12v1h-7V46.6h6.56v1h-6.56V52.2h7.08v1Zm10.11,0,4.75-11.76h1.25l4.61,11.76h-1.2l-1.43-3.66h-5.36l-1.41,3.66Zm5.32-10.64-2.35,6h4.63Zm6.74-.17v-1h9.32v1h-4.1V53.16H157V42.35Zm12.15,10.81V41.4h1.12V53.16Zm8.29,0L169,41.4h1.2L174,51.92h0l3.79-10.52H179l-4.36,11.76Zm8.35,0V41.4h8.11v1h-7V46.6h6.56v1H182.8V52.2h7.09v1Z" transform="translate(0 0)" style="fill:#fff"/><path d="M104.57,26.69h1.68q-.1,4.74,5.75,4.74a5.54,5.54,0,0,0,3-.84,3.06,3.06,0,0,0,1.63-2.74q0-2.3-3.63-3.19l-3.93-1q-4-1-4-4.25a4.65,4.65,0,0,1,1.19-3.13,6.17,6.17,0,0,1,4.89-1.84,7.32,7.32,0,0,1,4.57,1.39,4.81,4.81,0,0,1,2,4.1h-1.69a3.86,3.86,0,0,0-1.5-3,5.31,5.31,0,0,0-3.31-1,5.41,5.41,0,0,0-3.07.76,3.1,3.1,0,0,0-1.36,2.73c0,1.36.89,2.25,2.67,2.7l4.3,1.06q4.57,1.14,4.57,4.65a4.5,4.5,0,0,1-1,3q-1.68,2.09-5.71,2.08a8.06,8.06,0,0,1-5.16-1.49A5.25,5.25,0,0,1,104.57,26.69Zm18.92,5.81V14.86h1.68v7.65h10.47V14.86h1.68V32.5h-1.68V24H125.17V32.5Zm17.91,0,7.11-17.64h1.88L157.3,32.5h-1.8L153.35,27h-8L143.2,32.5Zm8-16-3.54,9h6.94Zm12,16V14.86h7.83A5.35,5.35,0,0,1,173,16.2a4.82,4.82,0,0,1,1.42,3.7A4.86,4.86,0,0,1,173,23.61,5.35,5.35,0,0,1,169.21,25h-6.15V32.5Zm1.68-16.21V23.5h5.78a4.2,4.2,0,0,0,2.87-.92,3.34,3.34,0,0,0,1.06-2.68,3.44,3.44,0,0,0-1.08-2.71,4.19,4.19,0,0,0-2.85-.89ZM179.41,32.5V14.86h12.18v1.43h-10.5v6.37h9.83V24.1h-9.83v7h10.62V32.5Zm15.94-5.86h3.75a2.9,2.9,0,0,0,1.19,2.52,4.48,4.48,0,0,0,2.71.74,5.18,5.18,0,0,0,2.23-.42,1.89,1.89,0,0,0,1.21-1.78c0-1-.91-1.76-2.72-2.27Q199,24.1,198.66,23.9a4.32,4.32,0,0,1-2.72-4.13,4.67,4.67,0,0,1,2.1-4,7.62,7.62,0,0,1,4.49-1.31,8.46,8.46,0,0,1,4.92,1.31,5,5,0,0,1,2.15,4.37h-3.76q-.15-2.67-3.48-2.67a3.44,3.44,0,0,0-1.8.45,1.72,1.72,0,0,0-.87,1.55,1.47,1.47,0,0,0,1,1.41A35.71,35.71,0,0,0,205,22.12,10.37,10.37,0,0,1,208,23.31a4.42,4.42,0,0,1,2.15,4,5,5,0,0,1-1.88,4,8.43,8.43,0,0,1-5.45,1.61,8.73,8.73,0,0,1-5.24-1.51A5.52,5.52,0,0,1,195.35,26.64ZM215,32.5V14.86h3.88v6.77H226V14.86h3.87V32.5H226V24.89h-7.14V32.5Zm20.77,0V14.86h3.88V32.5Zm9.76,0V14.86h12.4v3.26h-8.53V22.2h7.39v3h-7.39V32.5Zm21,0V18.12h-5.29V14.86h14.45v3.26h-5.29V32.5Zm13.66,0V14.86h13.2v3.26h-9.32V21.9h8.55v3h-8.55v4.32h9.51V32.5Zm18.48,0V14.86h9.51a5.17,5.17,0,0,1,3.78,1.43,4.71,4.71,0,0,1,1.38,3.44,4.32,4.32,0,0,1-2.79,4.42v.05c1.55.4,2.41,1.77,2.57,4.13l.15,2.12a4.5,4.5,0,0,0,.59,2.05H310a8.1,8.1,0,0,1-.42-2l-.2-2.23a3.38,3.38,0,0,0-.84-2.05,3,3,0,0,0-2.09-.62h-3.88v6.9Zm3.88-14.63v5h4.24q2.67,0,2.67-2.52c0-1.63-.89-2.45-2.67-2.45Zm15.31,8.77h3.76a2.91,2.91,0,0,0,1.18,2.52,4.52,4.52,0,0,0,2.72.74,5.14,5.14,0,0,0,2.22-.42,1.87,1.87,0,0,0,1.21-1.78c0-1-.9-1.76-2.71-2.27q-4.7-1.34-5.07-1.53a4.34,4.34,0,0,1-2.72-4.13,4.7,4.7,0,0,1,2.1-4,7.67,7.67,0,0,1,4.5-1.31A8.48,8.48,0,0,1,330,15.75a5,5,0,0,1,2.14,4.37h-3.75q-.15-2.67-3.48-2.67a3.48,3.48,0,0,0-1.81.45,1.74,1.74,0,0,0-.86,1.55,1.46,1.46,0,0,0,1,1.41,35.86,35.86,0,0,0,4.3,1.26,10.37,10.37,0,0,1,3.09,1.19,4.44,4.44,0,0,1,2.15,4,5,5,0,0,1-1.88,4,8.47,8.47,0,0,1-5.46,1.61,8.68,8.68,0,0,1-5.23-1.51A5.53,5.53,0,0,1,317.84,26.64Z" transform="translate(0 0)" style="fill:#fff"/><path d="M9.11,49.23,2,53.68,33.74,71.8l-.16-10Z" transform="translate(0 0)" style="fill:#242424;fill-rule:evenodd"/><path d="M51.23,21.25l-38.59,23,29,16.4L81,38.6Z" transform="translate(0 0)" style="fill:#242424;fill-rule:evenodd"/><path d="M12,37.08l9-5.13v7.52L12,44.6Z" transform="translate(0 0)" style="fill:#121212;fill-rule:evenodd"/><path d="M48.26,9.8,28.81,20.85V31.34l19.44-11Z" transform="translate(0 0)" style="fill:#121212;fill-rule:evenodd"/><g style="clip-path:url(#a)"><g style="clip-path:url(#b)"><path d="M18.19,14.7l30.1,17.91V43.1L15.91,24l.05-7.2Z" transform="translate(0 0)" style="fill:#d37215;fill-rule:evenodd"/></g></g><path d="M80.7,23.06,69.49,29.43l.07,10.49,11.31-6.46L82.47,31V24.75Z" transform="translate(0 0)" style="fill:#121212;fill-rule:evenodd"/><g style="clip-path:url(#a)"><g style="clip-path:url(#d)"><path d="M42,13.46l27.54,16V39.92L41.88,23.69V13.43Z" transform="translate(0 0)" style="fill:#d37215;fill-rule:evenodd"/></g></g><path d="M41.64,60.62,81,38.59,82.25,41V61.05l-1.34,2.87L41.55,86.18Z" transform="translate(0 0)" style="fill:#121212;fill-rule:evenodd"/><g style="clip-path:url(#a)"><g style="clip-path:url(#f)"><path d="M3.07,23.79,26.91,37l-.22,9.85-14.26-8v5.56L41.69,60.83l-.07,25.38-39.2-22L1,61.18v-6l1-1.51L31.52,70.37V64.8l-29-16.49L1,45.14,1,25.82Z" transform="translate(0 0)" style="fill:#d37215;fill-rule:evenodd"/></g><g style="clip-path:url(#g)"><path d="M33.29,32.82,42,37.43,43.3,40,34.56,35.2Z" transform="translate(0 0)" style="fill:#99511d;fill-rule:evenodd"/></g></g><path d="M26.62,36.92l8.05-4.81L12.25,19.31H10.88L3.07,23.79Z" transform="translate(0 0)" style="fill:#242424;fill-rule:evenodd"/><g style="clip-path:url(#a)"><g style="clip-path:url(#i)"><path d="M59.67,32.66,68,37.34l1.52,2.58L60.94,35Z" transform="translate(0 0)" style="fill:#99511d;fill-rule:evenodd"/></g></g><path d="M34.67,32.11l1.82,1.66v7.29l-9.8,5.78-.06-9.93Z" transform="translate(0 0)" style="fill:#121212;fill-rule:evenodd"/><path d="M37,39v1.75L26.69,47l1.38-2.57Z" transform="translate(0 0)" style="fill:#040504;fill-rule:evenodd"/><g style="clip-path:url(#a)"><g style="clip-path:url(#k)"><path d="M34,40.72l7.85,4.44.07,10.46-9-5.13-1.05-2.34v-5.4Z" transform="translate(0 0)" style="fill:#d37215;fill-rule:evenodd"/></g></g><path d="M63.38,32.82,41.73,45.16l.14,10.47L63.59,43.19l1.7-2.72v-6Z" transform="translate(0 0)" style="fill:#121212;fill-rule:evenodd"/><path d="M38.33,18.63l3.55-2.13V13.43L35.68,17Z" transform="translate(0 0)" style="fill:#1a1a1a;fill-rule:evenodd"/><path d="M43.09,63.05,82.25,41,81,38.59l-39.36,22Z" transform="translate(0 0)" style="fill:#1a1a1a;fill-rule:evenodd"/><path d="M43.25,47.13l22-12.65-1.81-1.82L41.8,45Z" transform="translate(0 0)" style="fill:#1a1a1a;fill-rule:evenodd"/><path d="M34.67,32.11l1.82,1.66-8.42,5.11-1.45-2.17Z" transform="translate(0 0)" style="fill:#1a1a1a;fill-rule:evenodd"/><path d="M80.81,23,69.49,29.43l1.57,2,11.41-6.67Z" transform="translate(0 0)" style="fill:#1a1a1a;fill-rule:evenodd"/><path d="M1,45.14,32.66,62.81l-1.24,2L2.39,48.4Z" transform="translate(0 0)" style="fill:#99511d;fill-rule:evenodd"/><path d="M10.4,36l14.92,8.46L26.69,47l-14-8Z" transform="translate(0 0)" style="fill:#99511d;fill-rule:evenodd"/><path d="M1,61.18,40.19,83.06l1.43,3.15-39.2-22Z" transform="translate(0 0)" style="fill:#99511d;fill-rule:evenodd"/><path d="M31.82,48.15,40.35,53l1.52,2.64-9-5.13Z" transform="translate(0 0)" style="fill:#99511d;fill-rule:evenodd"/><path d="M43.09,83.06l39.16-22-1.34,2.87L41.62,86.21Z" transform="translate(0 0)" style="fill:#040504;fill-rule:evenodd"/><path d="M40.35,47h2.8l.1.12V53l-.1.17h-2.7L40.34,53Z" transform="translate(0 0)" style="fill:#d37215"/><path d="M40.19,63.05h2.9v20l-.13.29H40.32l-.13-.29Z" transform="translate(0 0)" style="fill:#d37215"/><path d="M10.4,36l2.24,2.92v7.41H10.4Z" transform="translate(0 0)" style="fill:#d37215;fill-rule:evenodd"/><path d="M32.66,62.81l.15,10.38-1.43-3,0-5.41Z" transform="translate(0 0)" style="fill:#d37215;fill-rule:evenodd"/><path d="M45.85,34.52,16,16.76,18,14.65,48.37,32.83Z" transform="translate(0 0)" style="fill:#ee8b3f;fill-rule:evenodd"/><path d="M32.81,73.19,1,55.2l1-1.52L31.38,70.22Z" transform="translate(0 0)" style="fill:#ee8b3f;fill-rule:evenodd"/><path d="M40.19,63.05,10.4,46.33l2.24-2.11,29,16.4Z" transform="translate(0 0)" style="fill:#ee8b3f;fill-rule:evenodd"/><path d="M25.17,38.89,1,25.82l2.05-2L26.62,36.7Z" transform="translate(0 0)" style="fill:#ee8b3f;fill-rule:evenodd"/><path d="M68.23,31.53l-26.35-15V13.43L69.53,29.48Z" transform="translate(0 0)" style="fill:#ee8b3f;fill-rule:evenodd"/><path d="M34,40.72,41.8,45l-1.43,2.11-8.53-4.38Z" transform="translate(0 0)" style="fill:#ee8b3f;fill-rule:evenodd"/><path d="M40.35,53l1.52,2.65L43.25,53Z" transform="translate(0 0)" style="fill:#ac5c23;fill-rule:evenodd"/><path d="M40.19,83.06l1.43,3.15,1.47-3.15Z" transform="translate(0 0)" style="fill:#ac5c23;fill-rule:evenodd"/><g style="clip-path:url(#a)"><g style="clip-path:url(#m)"><path d="M25.68,38.22h1.89l.5.65v5.5h-2.9V38.89Z" transform="translate(0 0)" style="fill:#d37215"/></g></g><path d="M25.17,44.38,26.69,47l1.38-2.57Z" transform="translate(0 0)" style="fill:#ac5c23;fill-rule:evenodd"/><path d="M40.19,63.05l1.45-2.43,1.45,2.43Z" transform="translate(0 0)" style="fill:#ff9b60;fill-rule:evenodd"/><path d="M40.35,47.14,41.8,45l1.45,2.11Z" transform="translate(0 0)" style="fill:#ff9b60;fill-rule:evenodd"/><path d="M25.17,38.89l1.45-2.19,1.45,2.18Z" transform="translate(0 0)" style="fill:#ff9b60;fill-rule:evenodd"/><path d="M41.74,1,18,14.65,48.17,32.7,34,40.72,41.8,45,63.49,32.66,36,16.88l5.9-3.45L69.53,29.48,80.82,23,42.67,1Z" transform="translate(0 0)" style="fill:#242424;fill-rule:evenodd"/><path d="M43.25,53l-1.38,2.63L63.59,43.19l1.7-2.72Z" transform="translate(0 0)" style="fill:#040504;fill-rule:evenodd"/><g style="clip-path:url(#a)"><g style="clip-path:url(#o)"><path d="M68,31.43h3l0,5.89-.47.77H68.51L68,37.34Z" transform="translate(0 0)" style="fill:#d37215"/></g></g><path d="M68,37.33l1.52,2.59L71,37.31Z" transform="translate(0 0)" style="fill:#ac5c23;fill-rule:evenodd"/><path d="M71.06,31.42l-1.53-1.94L68,31.43Z" transform="translate(0 0)" style="fill:#ff9b60;fill-rule:evenodd"/><path d="M41.62,86.21,80.91,63.92l1.33-2.87V41L81,38.6,76.49,36l4.38-2.52L82.47,31V24.75L80.81,23,42.66,1l-.92,0L18,14.65,16,16.77v4.7l-3.71-2.16H10.88L3.07,23.8l-2,2L1,45.14,2.39,48.4l4.2,2.39L2,53.68,1,55.2v6l1.42,3Z" transform="translate(0 0)" style="fill:none"/><path d="M41.62,86.21,80.91,63.92l1.34-2.87V41L81,38.59,76.49,36l4.38-2.51L82.47,31V24.75L80.81,23,42.66,1l-.92,0L18,14.65,16,16.76v4.7l-3.71-2.15H10.88L3.07,23.79l-2,2L1,45.14,2.39,48.4l4.2,2.4L2,53.68,1,55.19v6l1.42,3,39.2,22m0,1.14-.49-.27-39.2-22-.28-.16-.13-.29-1.43-3L0,61.4V54.91l.15-.25,1-1.52L1.23,53l.2-.12,3.2-2L1.89,49.27l-.29-.16-.13-.32L.08,45.53,0,45.34v-.2L0,25.82v-.41l.29-.3,2.05-2L2.45,23l.12-.06,7.81-4.49.23-.13h1.91l.24.13L15,19.72V16.36l.28-.29,2-2.11.1-.1.12-.07L41.24.15,41.47,0h.26l.92,0h.28l.23.14,38.15,22,.13.07.11.11,1.65,1.79.27.28v6.94l-.16.25L81.71,34l-.13.2-.21.12L78.49,36l3,1.75.25.14.13.26,1.25,2.37.12.22V61.27l-.1.2-1.34,2.87-.13.29-.28.16L42.12,87.08Z" transform="translate(0 0)" style="fill:#fff"/><path d="M106.9,68.45h-1.63V71.7h-1V63.57h2.38a2.57,2.57,0,0,1,1.84.63,2.76,2.76,0,0,1,.65,1.87,2.31,2.31,0,0,1-.33,1.25,1.78,1.78,0,0,1-1,.88l1.62,3.5v.12h-1Zm-1.63-1h1.41a1.66,1.66,0,0,0,1.08-.38,1.28,1.28,0,0,0,.43-1.12,1.44,1.44,0,0,0-.43-1.13,1.88,1.88,0,0,0-1.08-.37h-1.41Z" transform="translate(0 0)" style="fill:#fff"/><path d="M114.47,68h-3.14v2.87h3.58v.88h-4.55V63.57h4.55v.88h-3.58v2.62h3Z" transform="translate(0 0)" style="fill:#fff"/><path d="M120,69.57h-2.92l-.65,2.13h-1l2.7-8.13h.76l2.71,8.13h-1Zm-2.7-.87h2.38l-1.19-3.88Z" transform="translate(0 0)" style="fill:#fff"/><path d="M123.56,70.82h3.36v.88h-4.33V63.57h1Z" transform="translate(0 0)" style="fill:#fff"/><path d="M135.15,64.45h-2.28V71.7h-1V64.45h-2.27v-.88h5.52Z" transform="translate(0 0)" style="fill:#fff"/><path d="M137.2,71.7h-1V63.57h1Z" transform="translate(0 0)" style="fill:#fff"/><path d="M140,63.57l2.27,6.63,2.27-6.63h1.19V71.7h-1V68.45l.11-3.5-2.28,6.62H142L139.69,65l.11,3.37v3.13h-1V63.32H140Z" transform="translate(0 0)" style="fill:#fff"/><path d="M151.6,68h-3v2.87h3.57v.88h-4.55V63.57H152v.88h-3.46v2.62h3V68Z" transform="translate(0 0)" style="fill:#fff"/><path d="M156.68,68.45V71.7h-1V63.57h2.6a3.26,3.26,0,0,1,1.84.63,3,3,0,0,1,0,3.75,2.1,2.1,0,0,1-1.84.62h-1.63Zm0-.88h1.63a1.65,1.65,0,0,0,1.08-.37,1.48,1.48,0,0,0,.43-1.13,1.3,1.3,0,0,0-.43-1.12,1.42,1.42,0,0,0-1.08-.5h-1.63Z" transform="translate(0 0)" style="fill:#fff"/><path d="M164.59,68.45H163V71.7h-1V63.57h2.38a2.57,2.57,0,0,1,1.84.63,2.76,2.76,0,0,1,.65,1.87,2.31,2.31,0,0,1-.33,1.25,1.78,1.78,0,0,1-1,.88l1.62,3.5v.12h-1Zm-1.74-1h1.41a1.66,1.66,0,0,0,1.08-.38,1.28,1.28,0,0,0,.44-1.12,1.45,1.45,0,0,0-.44-1.13,1.85,1.85,0,0,0-1.08-.37h-1.41Z" transform="translate(0 0)" style="fill:#fff"/><path d="M173.57,67.82a7.16,7.16,0,0,1-.33,2.13,3.74,3.74,0,0,1-1,1.37,2.67,2.67,0,0,1-3,0,3.34,3.34,0,0,1-1-1.25,6.3,6.3,0,0,1-.33-2v-.62a7.16,7.16,0,0,1,.33-2.13,3,3,0,0,1,1-1.37,2.55,2.55,0,0,1,3,0,2.61,2.61,0,0,1,1,1.25,6.5,6.5,0,0,1,.33,2.12Zm-1-.5a4,4,0,0,0-.54-2.25,1.69,1.69,0,0,0-2.49-.37l-.32.37a4.67,4.67,0,0,0-.54,2.13v.62a4.34,4.34,0,0,0,.54,2.25,1.41,1.41,0,0,0,1.41.75,1.65,1.65,0,0,0,1.4-.75,4.6,4.6,0,0,0,.54-2.12Z" transform="translate(0 0)" style="fill:#fff"/><path d="M175,71.7V63.57h1.94a2.58,2.58,0,0,1,1.63.5,2.88,2.88,0,0,1,1.08,1.25,5.85,5.85,0,0,1,.43,2v.5a4.16,4.16,0,0,1-.43,2,2.88,2.88,0,0,1-1.08,1.25,2.71,2.71,0,0,1-1.63.5Zm.86-7.25v6.37h1a1.91,1.91,0,0,0,1.62-.75,3.85,3.85,0,0,0,.65-2.25v-.5a3.64,3.64,0,0,0-.54-2.12,1.75,1.75,0,0,0-1.63-.75Z" transform="translate(0 0)" style="fill:#fff"/><path d="M186.45,63.57v5.5A2.79,2.79,0,0,1,185.8,71a2.93,2.93,0,0,1-1.73.87h-.22a2.7,2.7,0,0,1-1.84-.75,2.6,2.6,0,0,1-.65-2v-5.5h1v5.5A1.74,1.74,0,0,0,183.63,71H184a1.53,1.53,0,0,0,1.19-.5,2.1,2.1,0,0,0,.43-1.38v-5.5Z" transform="translate(0 0)" style="fill:#fff"/><path d="M193.16,69.07a2.78,2.78,0,0,1-.87,2,2.7,2.7,0,0,1-1.84.75,2.41,2.41,0,0,1-1.95-1,4.72,4.72,0,0,1-.75-2.75v-.75a6.08,6.08,0,0,1,.32-2,2.63,2.63,0,0,1,1-1.25,2.26,2.26,0,0,1,1.51-.5,2.7,2.7,0,0,1,1.84.75,3.2,3.2,0,0,1,.76,2h-1a2.1,2.1,0,0,0-.54-1.37,1.41,1.41,0,0,0-1.08-.5,1.67,1.67,0,0,0-1.41.75,4.73,4.73,0,0,0-.54,2.12v.75a4.6,4.6,0,0,0,.44,2.13,1.47,1.47,0,0,0,1.29.75,2,2,0,0,0,1.2-.38,2.16,2.16,0,0,0,.54-1.37Z" transform="translate(0 0)" style="fill:#fff"/><path d="M199.11,64.45h-2.27V71.7h-1V64.45h-2.27v-.88h5.52Z" transform="translate(0 0)" style="fill:#fff"/><path d="M201.17,71.7h-1V63.57h1Z" transform="translate(0 0)" style="fill:#fff"/><path d="M208.31,67.82A7.48,7.48,0,0,1,208,70a3.76,3.76,0,0,1-1,1.37,2.67,2.67,0,0,1-3,0,3.34,3.34,0,0,1-1-1.25,6.3,6.3,0,0,1-.33-2v-.62a7.16,7.16,0,0,1,.33-2.13A3,3,0,0,1,204,64a2.25,2.25,0,0,1,1.52-.5A2.21,2.21,0,0,1,207,64a2.63,2.63,0,0,1,1,1.25,6.78,6.78,0,0,1,.32,2.12Zm-.86-.5a4,4,0,0,0-.55-2.25,1.68,1.68,0,0,0-2.48-.37l-.33.37a4.8,4.8,0,0,0-.54,2.13v.62a4.34,4.34,0,0,0,.54,2.25,1.42,1.42,0,0,0,1.41.75,1.65,1.65,0,0,0,1.4-.75,4.61,4.61,0,0,0,.55-2.12Z" transform="translate(0 0)" style="fill:#fff"/><path d="M215.13,71.7h-1l-3.58-6.25V71.7h-1V63.57h1L214.16,70V63.57h1Z" transform="translate(0 0)" style="fill:#fff"/><path d="M220,73.2h-.76V63.45H220Z" transform="translate(0 0)" style="fill:#fff"/><path d="M226.82,68.45H225.2V71.7h-1V63.57h2.38a2.57,2.57,0,0,1,1.84.63,2.72,2.72,0,0,1,.65,1.87,2.39,2.39,0,0,1-.32,1.25,1.8,1.8,0,0,1-1,.88l1.52,3.37v.13h-1Zm-1.73-1h1.41a1.67,1.67,0,0,0,1.08-.38A1.3,1.3,0,0,0,228,66a1.48,1.48,0,0,0-.43-1.13,1.9,1.9,0,0,0-1.08-.37h-1.41Z" transform="translate(0 0)" style="fill:#fff"/><path d="M231.26,71.7h-.87V63.57h1V71.7Z" transform="translate(0 0)" style="fill:#fff"/><path d="M238.18,70.57a2.2,2.2,0,0,1-1,.88,3,3,0,0,1-1.51.25,2.27,2.27,0,0,1-1.52-.5A5.66,5.66,0,0,1,233.1,70a4.29,4.29,0,0,1-.33-2V67.2a4.61,4.61,0,0,1,.76-2.88,2.15,2.15,0,0,1,2.06-1,3.26,3.26,0,0,1,1.84.63,3.64,3.64,0,0,1,.86,1.87h-1c-.11-1-.87-1.75-1.62-1.62a1.65,1.65,0,0,0-1.41.75,3.72,3.72,0,0,0-.43,2.25v.62A3.62,3.62,0,0,0,234.4,70a1.8,1.8,0,0,0,1.51.87,2.75,2.75,0,0,0,1-.12,2.52,2.52,0,0,0,.65-.5V68.45h-1.63v-.88h2.6Z" transform="translate(0 0)" style="fill:#fff"/><path d="M245,70.57a2.25,2.25,0,0,1-1,.88,3,3,0,0,1-1.52.25,2.26,2.26,0,0,1-1.51-.5A3.72,3.72,0,0,1,239.92,70a6.61,6.61,0,0,1-.44-2V67.2a4.67,4.67,0,0,1,.76-2.88,2.15,2.15,0,0,1,2.06-1,3.26,3.26,0,0,1,1.84.63,3.57,3.57,0,0,1,.86,1.87h-1c-.11-1-.87-1.75-1.62-1.62A1.65,1.65,0,0,0,241,65a3.72,3.72,0,0,0-.43,2.25v.62a3.62,3.62,0,0,0,.54,2.13,1.8,1.8,0,0,0,1.51.87,2.75,2.75,0,0,0,1-.12,2.52,2.52,0,0,0,.65-.5V68.45h-1.63v-.88h2.6Z" transform="translate(0 0)" style="fill:#fff"/><path d="M247.6,71.7h-1V63.57h1Z" transform="translate(0 0)" style="fill:#fff"/><path d="M254.74,71.7h-1l-3.57-6.25V71.7h-1V63.57h1L253.77,70V63.57h1Z" transform="translate(0 0)" style="fill:#fff"/><path d="M261.56,70.57a2.25,2.25,0,0,1-1,.88,3,3,0,0,1-1.52.25,2.26,2.26,0,0,1-1.51-.5A2.82,2.82,0,0,1,256.48,70a6.4,6.4,0,0,1-.33-2V67.2a4.61,4.61,0,0,1,.76-2.88,2.15,2.15,0,0,1,2.06-1,2.71,2.71,0,0,1,1.73.63,3.57,3.57,0,0,1,.86,1.87h-.86c-.11-1-.76-1.75-1.63-1.62a1.65,1.65,0,0,0-1.4.75,4.73,4.73,0,0,0-.54,2.25v.62a3.62,3.62,0,0,0,.54,2.13,1.8,1.8,0,0,0,1.51.87,1.93,1.93,0,0,0,.87-.12,2.52,2.52,0,0,0,.65-.5V68.32h-1.63v-.87h2.6Z" transform="translate(0 0)" style="fill:#fff"/><path d="M265.35,69.45a2.22,2.22,0,0,1,.33-1.13,3.23,3.23,0,0,1,1.08-1.12,9.44,9.44,0,0,1-.65-1.13,1.78,1.78,0,0,1-.11-.75,2.45,2.45,0,0,1,.43-1.5,1.77,1.77,0,0,1,1.3-.5,1.51,1.51,0,0,1,1.19.5,1.4,1.4,0,0,1,.44,1.25,2,2,0,0,1-.22.88,2.78,2.78,0,0,1-.76.87l-.54.5,1.62,2.13a3.86,3.86,0,0,0,.33-1.63h.76a4.6,4.6,0,0,1-.65,2.38l1,1.37h-1.08l-.43-.62a2.27,2.27,0,0,1-.87.62,2.5,2.5,0,0,1-1,.13,2.45,2.45,0,0,1-1.63-.63A1.55,1.55,0,0,1,265.35,69.45Zm2.17,1.5a1.69,1.69,0,0,0,1.3-.63L267.08,68l-.1.12a1.73,1.73,0,0,0-.76,1.38,2.27,2.27,0,0,0,.32,1.12,1.62,1.62,0,0,0,1,.38Zm-.76-5.63a2.16,2.16,0,0,0,.54,1.25l.54-.5a.86.86,0,0,0,.43-.5,1,1,0,0,0,.11-.62,1.12,1.12,0,0,0-.21-.63,1.51,1.51,0,0,0-.65-.25,1.42,1.42,0,0,0-.65.25c0,.5-.11.75-.11,1Z" transform="translate(0 0)" style="fill:#fff"/><path d="M279,64.45h-2.27V71.7h-.87V64.45h-2.27v-.88h5.52Z" transform="translate(0 0)" style="fill:#fff"/><path d="M280.07,71.7V63.57H282a2.55,2.55,0,0,1,1.62.5,2.84,2.84,0,0,1,1.09,1.25,6.09,6.09,0,0,1,.43,2v.5a4.16,4.16,0,0,1-.43,2,2.84,2.84,0,0,1-1.09,1.25,2.7,2.7,0,0,1-1.62.5Zm.87-7.25v6.37h1a1.93,1.93,0,0,0,1.63-.75,3.85,3.85,0,0,0,.64-2.25v-.5a3.57,3.57,0,0,0-.54-2.12,1.72,1.72,0,0,0-1.62-.75Z" transform="translate(0 0)" style="fill:#fff"/><path d="M291.11,68.07a3.53,3.53,0,0,1-1.73-1,2.19,2.19,0,0,1,.11-3,2.31,2.31,0,0,1,1.73-.62,2.57,2.57,0,0,1,1.3.37,3,3,0,0,1,.86.88,2.63,2.63,0,0,1,.33,1.25h-1a1.3,1.3,0,0,0-.43-1.13c-.32-.25-.76-.5-1.08-.37a1.39,1.39,0,0,0-1.52,1.37,1.22,1.22,0,0,0,.33.88,3.28,3.28,0,0,0,1.3.62,7.2,7.2,0,0,1,1.4.63,4.51,4.51,0,0,1,.76.75,2.05,2.05,0,0,1,.22,1.12,2.18,2.18,0,0,1-.65,1.63,3.33,3.33,0,0,1-1.84.62,5.44,5.44,0,0,1-1.41-.25,2.5,2.5,0,0,1-1-.87,2.69,2.69,0,0,1-.33-1.25h1a1.3,1.3,0,0,0,.43,1.12,2,2,0,0,0,2.38,0,1.62,1.62,0,0,0,.44-1,1,1,0,0,0-.33-.87A2.71,2.71,0,0,0,291.11,68.07Z" transform="translate(0 0)" style="fill:#fff"/><path d="M298.9,68h-3v2.87h3.58v.88H294.9V63.57h4.55v.88h-3.58v2.62h3Z" transform="translate(0 0)" style="fill:#fff"/><path d="M303.13,68.45H301.5V71.7h-.86V63.57h2.27a2.57,2.57,0,0,1,1.84.63,2.76,2.76,0,0,1,.65,1.87,2.31,2.31,0,0,1-.33,1.25,1.78,1.78,0,0,1-1,.88l1.62,3.5v.12h-1Zm-1.63-1h1.41a1.66,1.66,0,0,0,1.08-.38,1.28,1.28,0,0,0,.43-1.12,1.44,1.44,0,0,0-.43-1.13,1.88,1.88,0,0,0-1.08-.37H301.5Z" transform="translate(0 0)" style="fill:#fff"/><path d="M309,70.32,311,63.57h1l-2.6,8.13h-.86l-2.6-8.13h1Z" transform="translate(0 0)" style="fill:#fff"/><path d="M314,71.7h-1V63.57h1Z" transform="translate(0 0)" style="fill:#fff"/><path d="M320.88,69.07a2.78,2.78,0,0,1-.87,2,2.7,2.7,0,0,1-1.84.75,2.76,2.76,0,0,1-2.06-1,4.72,4.72,0,0,1-.75-2.75v-.75a5.83,5.83,0,0,1,.32-2,2.67,2.67,0,0,1,1-1.25,2.3,2.3,0,0,1,1.52-.5,2.7,2.7,0,0,1,1.84.75,3.2,3.2,0,0,1,.76,2h-1a2.1,2.1,0,0,0-.54-1.37,1.42,1.42,0,0,0-1.08-.5,1.67,1.67,0,0,0-1.41.75,4.73,4.73,0,0,0-.54,2.12v.75a4.73,4.73,0,0,0,.43,2.13A1.64,1.64,0,0,0,318,71a1.94,1.94,0,0,0,1.19-.38,2.11,2.11,0,0,0,.55-1.37Z" transform="translate(0 0)" style="fill:#fff"/><path d="M326.18,68h-3v2.87h3.57v.88h-4.55V63.57h4.44v.88h-3.46v2.62h3Z" transform="translate(0 0)" style="fill:#fff"/><path d="M329.86,68.07a3.53,3.53,0,0,1-1.73-1,2.1,2.1,0,0,1-.54-1.37,2.14,2.14,0,0,1,.65-1.63,2.31,2.31,0,0,1,1.73-.62,2.6,2.6,0,0,1,1.3.37,3,3,0,0,1,.86.88,2.63,2.63,0,0,1,.33,1.25h-1a1.32,1.32,0,0,0-.43-1.13c-.32-.25-.76-.5-1.08-.37a1.39,1.39,0,0,0-1.52,1.37,1.22,1.22,0,0,0,.33.88,3.22,3.22,0,0,0,1.3.62,7.2,7.2,0,0,1,1.4.63,4.92,4.92,0,0,1,.76.75,2.05,2.05,0,0,1,.22,1.12,2.18,2.18,0,0,1-.65,1.63,3.33,3.33,0,0,1-1.84.62,5.29,5.29,0,0,1-1.41-.25,2.43,2.43,0,0,1-1-.87,2.69,2.69,0,0,1-.33-1.25h1a1.28,1.28,0,0,0,.43,1.12,2,2,0,0,0,2.38,0,1.61,1.61,0,0,0,.43-1,1,1,0,0,0-.32-.87A2.71,2.71,0,0,0,329.86,68.07Z" transform="translate(0 0)" style="fill:#fff"/></svg>