<svg id="Layer_1" data-name="Layer 1" xmlns="http://www.w3.org/2000/svg" viewBox="0 0 516.56342 540.33016"><defs><style>.cls-1{fill:#303030;}.cls-1,.cls-10,.cls-11,.cls-12,.cls-14,.cls-15,.cls-2,.cls-3,.cls-4,.cls-5,.cls-6,.cls-8{fill-rule:evenodd;}.cls-2{fill:#171717;}.cls-10,.cls-13,.cls-3,.cls-9{fill:#da8824;}.cls-13,.cls-3,.cls-4,.cls-7{isolation:isolate;}.cls-4,.cls-8{fill:#a9662a;}.cls-6{fill:#232323;}.cls-11{fill:#f09f54;}.cls-12{fill:#b97233;}.cls-14{fill:#feae76;}.cls-15{fill:none;stroke:#fff;stroke-miterlimit:10;stroke-width:4px;}</style></defs><path class="cls-1" d="M53.00042,305.37792l-45,28,200,114-1-63Z"/><path id="Shape_70_copy" data-name="Shape 70 copy" class="cls-1" d="M318.00043,129.37792,75.20542,273.89059l182.483,103.15526,247.598-138.56191Z"/><path class="cls-2" d="M71.00042,228.96793l56.352-32.261v47.33l-56.352,32.261v-47.33Z"/><path id="Rectangle_7_copy_3" data-name="Rectangle 7 copy 3" class="cls-2" d="M299.29743,57.37893l-122.295,69.5v66l122.295-69.5Z"/><path id="Rectangle_7_copy_3-2" data-name="Rectangle 7 copy 3-2" class="cls-3" d="M110.12542,88.15892l189.357,112.714v66l-203.7-120.4.344-45.312Z"/><path id="Rectangle_7_copy_3-3" data-name="Rectangle 7 copy 3-3" class="cls-2" d="M503.39441,140.78392l-70.531,40.058.484,66.006,71.128-40.679,10.088-15.504v-39.287Z"/><path id="Rectangle_7_copy_3-4" data-name="Rectangle 7 copy 3-4" class="cls-3" d="M260.04743,80.34793l173.3,100.5v66L259.18258,144.69665l-.05715-64.53773Z"/><path class="cls-2" d="M257.68842,377.04585l247.598-138.56191,7.849,14.925V379.762l-8.414,18.081-247.606,139.991Z"/><path class="cls-3" d="M15.00042,145.37792l150.001,83-1.356,61.998-89.765-50.542v35l184.12,103.547-.437,159.653-246.615-138.338-8.948-19.131v-37.631l6-9.556,186,104.999v-35l-182.266-103.706-9.734-20.01046.125-121.50154Z"/><path id="Rectangle_13_copy_12" data-name="Rectangle 13 copy 12" class="cls-4" d="M205.12542,202.15892l55,29,8,16-55-30Z"/><path class="cls-1" d="M163.19642,227.93005l50.633-30.23212-141.02334-80.546H64.16742l-49.167,28.226Z"/><path id="Rectangle_13_copy_17" data-name="Rectangle 13 copy 17" class="cls-4" d="M371.12543,201.15892l52.63922,29.41755,9.58277,16.27145-54.222-30.689Z"/><path class="cls-2" d="M213.82943,197.69793l11.45162,10.42258v45.88537l-61.63563,36.37-.449-62.44588Z"/><path class="cls-5" d="M228.4534,241.07551v11.05842l-64.808,38.95625,8.676-16.16423Z"/><path class="cls-3" d="M209.29042,251.88092l49.41,27.9.437,65.859-56.496-32.27332-6.641-14.72177V264.63393Z"/><path id="Rectangle_7_copy" data-name="Rectangle 7 copy" class="cls-2" d="M394.46341,202.15192l-136.242,77.637.916,65.851,136.656-78.244,10.723-17.116v-37.646Z"/><path id="Rectangle_13_copy_14" data-name="Rectangle 13 copy 14" class="cls-6" d="M236.86342,112.90892l22.31916-13.42913-.05715-19.32087-38.969,22.211Z"/><g id="Right_Bevel_high" data-name="Right Bevel high"><path id="Rectangle_13_copy_6" data-name="Rectangle 13 copy 6" class="cls-6" d="M266.81342,392.34691l246.322-138.938-7.849-14.925-247.598,138.56191Z"/><path id="Rectangle_13_copy_5-2" data-name="Rectangle 13 copy 5-2" class="cls-6" d="M267.81342,292.18392l138.703-79.55-11.391-11.475-136.425,77.77049Z"/><path class="cls-6" d="M213.82943,197.69793l11.45162,10.42258-52.95963,32.16088-9.125-13.68969Z"/><path id="Rectangle_7_copy_3-3-2" data-name="Rectangle 7 copy 3-3" class="cls-6" d="M504.12543,140.15892l-71.262,40.683,9.919,12.505,71.781-41.969Z"/></g><g id="Bevel_low" data-name="Bevel low" class="cls-7"><path class="cls-8" d="M2.00042,279.66046l199.178,111.17345-7.773,12.827-182.666-103.452Z"/><path id="Rectangle_13_copy_9" data-name="Rectangle 13 copy 9" class="cls-8" d="M61.12542,222.15892l93.89705,53.24783,8.623,15.68343-88.44-50.52129Z"/><path id="Rectangle_13_copy_2" data-name="Rectangle 13 copy 2" class="cls-8" d="M2.00042,380.56493l246.563,137.69752,9,19.77147-246.615-138.338Z"/><path id="Rectangle_13_copy_10" data-name="Rectangle 13 copy 10" class="cls-8" d="M195.87157,298.64482l53.69185,30.37491,9.574,16.62018-56.496-32.27332Z"/></g><path class="cls-5" d="M266.81342,518.26245l246.322-138.5005-8.414,18.081-247.158,140.191Z"/><g id="Bevel_Side" data-name="Bevel Side" class="cls-7"><polygon id="Rectangle_12_copy" data-name="Rectangle 12 copy" class="cls-9" points="249.563 291.409 267.187 291.466 267.813 292.184 267.813 329.119 267.207 330.19 250.254 330.19 249.563 329.02 249.563 291.409"/><polygon class="cls-9" points="248.563 392.347 266.813 392.347 266.813 518.262 265.97 520.065 249.384 520.065 248.563 518.262 248.563 392.347"/><path class="cls-10" d="M61.12542,222.15892l14.08,18.41v46.59h-14.08Z"/><path class="cls-10" d="M201.17842,390.83391l.947,65.325-9.00462-18.7364-.21322-34.04357Z"/></g><g id="Bevel_High" data-name="Bevel High"><path id="Rectangle_13_copy_13" data-name="Rectangle 13 copy 13" class="cls-11" d="M284.13944,212.89392l-188.013-111.733,12.876-13.278L300.01157,202.211Z"/><path id="Rectangle_13_copy" data-name="Rectangle 13 copy" class="cls-11" d="M202.12542,456.15892l-200.125-113.225,6-9.556L193.1208,437.42252Z"/><path id="Rectangle_13_copy_3" data-name="Rectangle 13 copy 3" class="cls-11" d="M248.56342,392.34691l-187.438-105.188,14.08-13.26833,182.483,103.15526Z"/><path id="Rectangle_13_copy_7" data-name="Rectangle 13 copy 7" class="cls-11" d="M154.07142,240.34041,2.12542,158.15892l12.875-12.781,148.196,81.21378Z"/><path id="Rectangle_13_copy_16" data-name="Rectangle 13 copy 16" class="cls-11" d="M424.98142,194.08492,259.18258,99.47979l-.05715-19.32087,174,101Z"/><path class="cls-11" d="M209.29042,251.88092l49.41,27.04849-9.037,13.25451-53.663-27.55Z"/></g><g id="Corners_low" data-name="Corners low"><path id="Polygon_1_copy_3" data-name="Polygon 1 copy 3" class="cls-12" d="M249.56342,329.01973l9.574,16.62018,8.692-16.55177Z"/><path id="Polygon_1_copy" data-name="Polygon 1 copy" class="cls-12" d="M248.56342,518.26245l9,19.77147,9.25-19.77147Z"/></g><polygon id="Rectangle_12_copy-2" data-name="Rectangle 12 copy" class="cls-13" points="157.291 236.155 169.146 236.194 172.321 240.281 172.321 274.926 154.071 274.867 154.071 240.34 157.291 236.155"/><path id="Polygon_1_copy_3-2" data-name="Polygon 1 copy 3" class="cls-12" d="M154.07142,274.86742l9.574,16.22276,8.676-16.16423Z"/><g id="Corners_high" data-name="Corners high"><path id="Polygon_1" data-name="Polygon 1" class="cls-14" d="M248.56342,392.34691l9.125-15.30106,9.125,15.30106Z"/><path id="Polygon_1_copy_2" data-name="Polygon 1 copy 2" class="cls-14" d="M249.56342,292.24294l9.137-13.31353,9.113,13.25451Z"/><path id="Polygon_1_copy_2-2" data-name="Polygon 1 copy 2" class="cls-14" d="M154.07142,240.34041l9.125-13.74871,9.125,13.68969Z"/></g><path id="Rectangle_7_copy_3-5" data-name="Rectangle 7 copy 3-5" class="cls-1" d="M258.31241,2.09392l-149.31,85.789,189.768,113.543-89.48,50.455,49.41,27.04849,136.425-77.77049-173.108-99.254,37.108-21.746,174,101,71-41-240-138.151Z"/><path id="Rectangle_7_copy-2" data-name="Rectangle 7 copy" class="cls-5" d="M267.81342,329.11862l-8.676,16.52129,136.656-78.244,10.723-17.116Z"/><polygon id="Rectangle_12_copy_3" data-name="Rectangle 12 copy 3" class="cls-13" points="423.765 193.391 442.782 193.347 442.627 230.402 439.689 235.261 426.749 235.261 423.765 230.576 423.765 193.391"/><path id="Polygon_1_copy_5" data-name="Polygon 1 copy 5" class="cls-12" d="M423.76465,230.57647l9.581,16.269,9.281-16.443Z"/><path id="Polygon_1_copy_5-2" data-name="Polygon 1 copy 5" class="cls-14" d="M442.78241,193.34693l-9.657-12.188-9.36078,12.23171Z"/><path class="cls-15" d="M257.56342,538.03392l247.158-140.191,8.414-18.081v-126.353l-7.849-14.925L476.90856,222.0023l27.56685-15.83338,10.088-15.504v-39.287l-10.438-11.219-240-138.151-5.813.086-149.31,85.789-12.876,13.278v29.54017L72.80609,117.15192H64.16742l-49.167,28.226-12.875,12.781-.125,121.50154,8.739,20.54845,26.4342,15.0464L8.00042,333.37792l-6,9.556v37.631l8.948,19.131Z"/></svg>