<svg id="Logo_Vector" data-name="Logo Vector" xmlns="http://www.w3.org/2000/svg" xmlns:xlink="http://www.w3.org/1999/xlink" width="196.563" height="205.607" viewBox="0 0 196.563 205.607">
  <defs>
    <clipPath id="clip-path">
      <rect id="Rectangle_258" data-name="Rectangle 258" width="196.563" height="205.607" fill="none"/>
    </clipPath>
    <clipPath id="clip-path-2">
      <rect id="Rectangle_257" data-name="Rectangle 257" width="77.512" height="68.004" fill="none"/>
    </clipPath>
    <clipPath id="clip-path-4">
      <rect id="Rectangle_259" data-name="Rectangle 259" width="66.295" height="63.429" fill="none"/>
    </clipPath>
    <clipPath id="clip-path-6">
      <rect id="Rectangle_261" data-name="Rectangle 261" width="97.413" height="149.414" fill="none"/>
    </clipPath>
    <clipPath id="clip-path-7">
      <rect id="Rectangle_262" data-name="Rectangle 262" width="23.973" height="17.123" fill="none"/>
    </clipPath>
    <clipPath id="clip-path-9">
      <rect id="Rectangle_264" data-name="Rectangle 264" width="23.677" height="17.386" fill="none"/>
    </clipPath>
    <clipPath id="clip-path-11">
      <rect id="Rectangle_266" data-name="Rectangle 266" width="24.025" height="35.677" fill="none"/>
    </clipPath>
    <clipPath id="clip-path-13">
      <rect id="Rectangle_268" data-name="Rectangle 268" width="6.945" height="14.753" fill="none"/>
    </clipPath>
    <clipPath id="clip-path-15">
      <rect id="Rectangle_270" data-name="Rectangle 270" width="7.236" height="15.949" fill="none"/>
    </clipPath>
  </defs>
  <path id="Path_57" data-name="Path 57" d="M25.124,305.377,8,316.032l76.1,43.379-.381-23.973Z" transform="translate(-4.956 -189.175)" fill="#242424" fill-rule="evenodd"/>
  <path id="Path_58" data-name="Path 58" d="M167.594,129.377l-92.389,54.99,69.439,39.253,94.216-52.726Z" transform="translate(-46.588 -80.147)" fill="#242424" fill-rule="evenodd"/>
  <path id="Path_59" data-name="Path 59" d="M71,208.983l21.443-12.276v18.01L71,226.992v-18.01Z" transform="translate(-43.983 -121.855)" fill="#121212" fill-rule="evenodd"/>
  <path id="Path_60" data-name="Path 60" d="M223.538,57.378,177,83.825v25.114l46.536-26.446Z" transform="translate(-109.649 -35.545)" fill="#121212" fill-rule="evenodd"/>
  <g id="Group_211" data-name="Group 211">
    <g id="Group_210" data-name="Group 210" clip-path="url(#clip-path)">
      <g id="Group_209" data-name="Group 209" transform="translate(36.447 33.546)" style="isolation: isolate">
        <g id="Group_208" data-name="Group 208">
          <g id="Group_207" data-name="Group 207" clip-path="url(#clip-path-2)">
            <path id="Path_61" data-name="Path 61" d="M101.24,88.159l72.054,42.89v25.114L95.783,110.348l.131-17.242Z" transform="translate(-95.782 -88.159)" fill="#d37215" fill-rule="evenodd"/>
          </g>
        </g>
      </g>
    </g>
  </g>
  <path id="Path_62" data-name="Path 62" d="M459.7,140.784l-26.839,15.243.184,25.117,27.066-15.479,3.839-5.9v-14.95Z" transform="translate(-268.15 -87.213)" fill="#121212" fill-rule="evenodd"/>
  <g id="Group_216" data-name="Group 216">
    <g id="Group_215" data-name="Group 215" clip-path="url(#clip-path)">
      <g id="Group_214" data-name="Group 214" transform="translate(98.602 30.502)" style="isolation: isolate">
        <g id="Group_213" data-name="Group 213">
          <g id="Group_212" data-name="Group 212" clip-path="url(#clip-path-4)">
            <path id="Path_63" data-name="Path 63" d="M259.476,80.231l65.944,38.242v25.114l-66.273-38.871-.022-24.558Z" transform="translate(-259.125 -80.159)" fill="#d37215" fill-rule="evenodd"/>
          </g>
        </g>
      </g>
    </g>
  </g>
  <path id="Path_64" data-name="Path 64" d="M257.334,291.209l94.216-52.726,2.987,5.679v48.08l-3.2,6.88-94.219,53.269Z" transform="translate(-159.278 -147.736)" fill="#121212" fill-rule="evenodd"/>
  <g id="Group_224" data-name="Group 224">
    <g id="Group_223" data-name="Group 223" clip-path="url(#clip-path)">
      <g id="Group_219" data-name="Group 219" transform="translate(0.761 55.319)" style="isolation: isolate">
        <g id="Group_218" data-name="Group 218">
          <g id="Group_217" data-name="Group 217" clip-path="url(#clip-path-6)">
            <path id="Path_65" data-name="Path 65" d="M6.947,145.377l57.079,31.583-.516,23.592L29.352,181.32v13.318l70.061,39.4-.166,60.751L5.405,242.151,2,234.871V220.552l2.283-3.637L75.06,256.87V243.551L5.7,204.089,2,196.475l.048-46.234Z" transform="translate(-2 -145.378)" fill="#d37215" fill-rule="evenodd"/>
          </g>
        </g>
      </g>
      <g id="Group_222" data-name="Group 222" transform="translate(78.054 76.926)" style="isolation: isolate">
        <g id="Group_221" data-name="Group 221">
          <g id="Group_220" data-name="Group 220" clip-path="url(#clip-path-7)">
            <path id="Path_66" data-name="Path 66" d="M205.125,202.159l20.929,11.035,3.044,6.088L208.17,207.867Z" transform="translate(-205.125 -202.159)" fill="#99511d" fill-rule="evenodd"/>
          </g>
        </g>
      </g>
    </g>
  </g>
  <path id="Path_67" data-name="Path 67" d="M71.392,159.306l19.267-11.5L37,117.152H33.709L15,127.892Z" transform="translate(-9.292 -72.573)" fill="#242424" fill-rule="evenodd"/>
  <g id="Group_229" data-name="Group 229">
    <g id="Group_228" data-name="Group 228" clip-path="url(#clip-path)">
      <g id="Group_227" data-name="Group 227" transform="translate(141.221 76.545)" style="isolation: isolate">
        <g id="Group_226" data-name="Group 226">
          <g id="Group_225" data-name="Group 225" clip-path="url(#clip-path-9)">
            <path id="Path_68" data-name="Path 68" d="M371.125,201.159l20.03,11.194,3.647,6.191L374.17,206.867Z" transform="translate(-371.125 -201.159)" fill="#99511d" fill-rule="evenodd"/>
          </g>
        </g>
      </g>
    </g>
  </g>
  <path id="Path_69" data-name="Path 69" d="M182.463,197.7l4.358,3.966v17.46l-23.454,13.84L163.2,209.2Z" transform="translate(-101.097 -122.47)" fill="#121212" fill-rule="evenodd"/>
  <path id="Path_70" data-name="Path 70" d="M188.306,241.076v4.208l-24.661,14.824,3.3-6.151Z" transform="translate(-101.375 -149.341)" fill="#040504" fill-rule="evenodd"/>
  <g id="Group_234" data-name="Group 234">
    <g id="Group_233" data-name="Group 233" clip-path="url(#clip-path)">
      <g id="Group_232" data-name="Group 232" transform="translate(74.582 95.846)" style="isolation: isolate">
        <g id="Group_231" data-name="Group 231">
          <g id="Group_230" data-name="Group 230" clip-path="url(#clip-path-11)">
            <path id="Path_71" data-name="Path 71" d="M201.057,251.88l18.8,10.617.166,25.061-21.5-12.281-2.527-5.6V256.733Z" transform="translate(-196 -251.881)" fill="#d37215" fill-rule="evenodd"/>
          </g>
        </g>
      </g>
    </g>
  </g>
  <path id="Path_72" data-name="Path 72" d="M310.064,202.152l-51.843,29.543.349,25.058,52-29.773,4.08-6.513V206.14Z" transform="translate(-159.963 -125.229)" fill="#121212" fill-rule="evenodd"/>
  <path id="Path_73" data-name="Path 73" d="M226.514,92.621l8.493-5.11-.022-7.352L220.156,88.61Z" transform="translate(-136.382 -49.657)" fill="#1a1a1a" fill-rule="evenodd"/>
  <path id="Path_74" data-name="Path 74" d="M261.161,297.032l93.731-52.869-2.987-5.679L257.689,291.21Z" transform="translate(-159.633 -147.736)" fill="#1a1a1a" fill-rule="evenodd"/>
  <path id="Path_75" data-name="Path 75" d="M262.168,235.8l52.779-30.271-4.335-4.366L258.7,230.752Z" transform="translate(-160.26 -124.614)" fill="#1a1a1a" fill-rule="evenodd"/>
  <path id="Path_76" data-name="Path 76" d="M182.463,197.7l4.358,3.966L166.669,213.9l-3.472-5.209Z" transform="translate(-101.097 -122.47)" fill="#1a1a1a" fill-rule="evenodd"/>
  <path id="Path_77" data-name="Path 77" d="M459.98,140.159l-27.117,15.481,3.774,4.758,27.314-15.97Z" transform="translate(-268.15 -86.825)" fill="#1a1a1a" fill-rule="evenodd"/>
  <path id="Path_78" data-name="Path 78" d="M2,279.661l75.791,42.3-2.958,4.881L5.326,287.48Z" transform="translate(-1.239 -173.244)" fill="#99511d" fill-rule="evenodd"/>
  <path id="Path_79" data-name="Path 79" d="M61.125,222.159l35.73,20.262,3.281,5.968L66.483,229.164Z" transform="translate(-37.866 -137.623)" fill="#99511d" fill-rule="evenodd"/>
  <path id="Path_80" data-name="Path 80" d="M2,380.565l93.822,52.4,3.425,7.524L5.405,387.845Z" transform="translate(-1.239 -235.752)" fill="#99511d" fill-rule="evenodd"/>
  <path id="Path_81" data-name="Path 81" d="M195.872,298.645,216.3,310.2l3.643,6.324-21.5-12.281Z" transform="translate(-121.338 -185.004)" fill="#99511d" fill-rule="evenodd"/>
  <path id="Path_82" data-name="Path 82" d="M261.083,432.464l93.731-52.7-3.2,6.88-94.049,53.345Z" transform="translate(-159.555 -235.255)" fill="#040504" fill-rule="evenodd"/>
  <path id="Path_83" data-name="Path 83" d="M249.564,291.409l6.706.022.238.273v14.055l-.231.408h-6.451l-.263-.445Z" transform="translate(-154.599 -180.522)" fill="#d37215"/>
  <path id="Path_84" data-name="Path 84" d="M248.564,392.347h6.944V440.26l-.321.686h-6.312l-.312-.686Z" transform="translate(-153.98 -243.051)" fill="#d37215"/>
  <path id="Path_85" data-name="Path 85" d="M61.125,222.159l5.358,7.005v17.728H61.125Z" transform="translate(-37.866 -137.623)" fill="#d37215" fill-rule="evenodd"/>
  <path id="Path_86" data-name="Path 86" d="M196.055,390.833l.36,24.858-3.427-7.129-.081-12.954Z" transform="translate(-119.502 -242.113)" fill="#d37215" fill-rule="evenodd"/>
  <path id="Path_87" data-name="Path 87" d="M167.669,135.452,96.126,92.935l4.9-5.053,72.683,43.5Z" transform="translate(-59.548 -54.441)" fill="#ee8b3f" fill-rule="evenodd"/>
  <path id="Path_88" data-name="Path 88" d="M78.152,380.1,2,337.014l2.283-3.636,70.442,39.591Z" transform="translate(-1.239 -206.521)" fill="#ee8b3f" fill-rule="evenodd"/>
  <path id="Path_89" data-name="Path 89" d="M132.45,318.966,61.126,278.939l5.358-5.049,69.439,39.253Z" transform="translate(-37.866 -169.669)" fill="#ee8b3f" fill-rule="evenodd"/>
  <path id="Path_90" data-name="Path 90" d="M59.944,181.513,2.125,150.241l4.9-4.863,56.392,30.9Z" transform="translate(-1.317 -90.058)" fill="#ee8b3f" fill-rule="evenodd"/>
  <path id="Path_91" data-name="Path 91" d="M322.237,123.51l-63.09-36-.022-7.352,66.211,38.433Z" transform="translate(-160.523 -49.657)" fill="#ee8b3f" fill-rule="evenodd"/>
  <path id="Path_92" data-name="Path 92" d="M201.057,251.88l18.8,10.293-3.439,5.044L196,256.733Z" transform="translate(-121.418 -156.035)" fill="#ee8b3f" fill-rule="evenodd"/>
  <path id="Path_93" data-name="Path 93" d="M249.564,329.02l3.643,6.324,3.307-6.3Z" transform="translate(-154.599 -203.821)" fill="#ac5c23" fill-rule="evenodd"/>
  <path id="Path_94" data-name="Path 94" d="M248.564,518.262l3.425,7.523,3.52-7.523Z" transform="translate(-153.98 -321.053)" fill="#ac5c23" fill-rule="evenodd"/>
  <g id="Group_239" data-name="Group 239">
    <g id="Group_238" data-name="Group 238" clip-path="url(#clip-path)">
      <g id="Group_237" data-name="Group 237" transform="translate(58.627 89.862)" style="isolation: isolate">
        <g id="Group_236" data-name="Group 236">
          <g id="Group_235" data-name="Group 235" clip-path="url(#clip-path-13)">
            <path id="Path_95" data-name="Path 95" d="M155.3,236.155l4.511.015,1.208,1.555v13.183l-6.945-.022V237.748Z" transform="translate(-154.071 -236.155)" fill="#d37215"/>
          </g>
        </g>
      </g>
    </g>
  </g>
  <path id="Path_96" data-name="Path 96" d="M154.071,274.868l3.643,6.173,3.3-6.151Z" transform="translate(-95.444 -170.275)" fill="#ac5c23" fill-rule="evenodd"/>
  <path id="Path_97" data-name="Path 97" d="M248.564,382.868l3.472-5.823,3.472,5.823Z" transform="translate(-153.98 -233.572)" fill="#ff9b60" fill-rule="evenodd"/>
  <path id="Path_98" data-name="Path 98" d="M249.564,284l3.477-5.066,3.468,5.043Z" transform="translate(-154.599 -172.791)" fill="#ff9b60" fill-rule="evenodd"/>
  <path id="Path_99" data-name="Path 99" d="M154.071,231.823l3.472-5.232,3.472,5.209Z" transform="translate(-95.444 -140.369)" fill="#ff9b60" fill-rule="evenodd"/>
  <path id="Path_100" data-name="Path 100" d="M165.818,2.04,109,34.684,181.213,77.89l-34.049,19.2,18.8,10.293,51.913-29.593L152.007,40.021l14.12-8.275,66.211,38.433,27.017-15.6L168.03,2.007Z" transform="translate(-67.525 -1.243)" fill="#242424" fill-rule="evenodd"/>
  <path id="Path_101" data-name="Path 101" d="M262.439,280.28l-3.3,6.287,52-29.773,4.08-6.513Z" transform="translate(-160.53 -155.043)" fill="#040504" fill-rule="evenodd"/>
  <g id="Group_244" data-name="Group 244">
    <g id="Group_243" data-name="Group 243" clip-path="url(#clip-path)">
      <g id="Group_242" data-name="Group 242" transform="translate(161.251 73.573)" style="isolation: isolate">
        <g id="Group_241" data-name="Group 241">
          <g id="Group_240" data-name="Group 240" clip-path="url(#clip-path-15)">
            <path id="Path_102" data-name="Path 102" d="M423.765,193.363l7.237-.016-.059,14.1-1.118,1.849H424.9l-1.135-1.782Z" transform="translate(-423.765 -193.347)" fill="#d37215"/>
          </g>
        </g>
      </g>
    </g>
  </g>
  <path id="Path_103" data-name="Path 103" d="M423.765,230.468l3.646,6.191,3.532-6.257Z" transform="translate(-262.513 -142.729)" fill="#ac5c23" fill-rule="evenodd"/>
  <path id="Path_104" data-name="Path 104" d="M431,185.8l-3.675-4.638-3.562,4.654Z" transform="translate(-262.513 -112.224)" fill="#ff9b60" fill-rule="evenodd"/>
  <g id="Group_246" data-name="Group 246">
    <g id="Group_245" data-name="Group 245" clip-path="url(#clip-path)">
      <path id="Path_105" data-name="Path 105" d="M99.248,205.977,193.3,152.632l3.2-6.88V97.671l-2.987-5.679-10.8-6.271L193.2,79.7l3.839-5.9V58.846l-3.972-4.269L101.745,2.008l-2.212.033L42.717,34.685l-4.9,5.053V50.978l-8.874-5.156H25.656L6.947,56.563l-4.9,4.863L2,107.66l3.325,7.819,10.059,5.726-11.1,6.9L2,131.737v14.319l3.4,7.28Z" transform="translate(-1.239 -1.244)" fill="none" stroke="#fff" stroke-miterlimit="10" stroke-width="4"/>
    </g>
  </g>
</svg>
