<svg xmlns="http://www.w3.org/2000/svg" xmlns:xlink="http://www.w3.org/1999/xlink" width="317.82" height="87.35" viewBox="0 0 317.82 87.35"><defs><clipPath id="a" transform="translate(0 0)"><rect x="0.68" y="0.68" width="82.11" height="85.89" style="fill:none"/></clipPath><clipPath id="b" transform="translate(0 0)"><rect x="15.91" y="14.7" width="32.38" height="28.41" style="fill:none"/></clipPath><clipPath id="d" transform="translate(0 0)"><rect x="41.87" y="13.43" width="27.69" height="26.5" style="fill:none"/></clipPath><clipPath id="f" transform="translate(0 0)"><rect x="1" y="23.79" width="40.69" height="62.41" style="fill:none"/></clipPath><clipPath id="g" transform="translate(0 0)"><rect x="33.29" y="32.82" width="10.01" height="7.15" style="fill:none"/></clipPath><clipPath id="i" transform="translate(0 0)"><rect x="59.67" y="32.66" width="9.89" height="7.26" style="fill:none"/></clipPath><clipPath id="k" transform="translate(0 0)"><rect x="31.84" y="40.72" width="10.04" height="14.9" style="fill:none"/></clipPath><clipPath id="m" transform="translate(0 0)"><rect x="25.17" y="38.22" width="2.9" height="6.16" style="fill:none"/></clipPath><clipPath id="o" transform="translate(0 0)"><rect x="68.04" y="31.42" width="3.02" height="6.66" style="fill:none"/></clipPath></defs><path d="M105.9,45.69h-1.09a3.38,3.38,0,0,0-1.25-2,3.66,3.66,0,0,0-2.25-.74A3.84,3.84,0,0,0,98,44.49,5.68,5.68,0,0,0,97,48a5.59,5.59,0,0,0,1,3.44A3.81,3.81,0,0,0,101.31,53a3.31,3.31,0,0,0,2.54-1.07A4.21,4.21,0,0,0,105,49.31h1.09a5.27,5.27,0,0,1-1.49,3.35,4.49,4.49,0,0,1-3.26,1.24,4.94,4.94,0,0,1-4-1.81A6.33,6.33,0,0,1,95.92,48a6.34,6.34,0,0,1,1.34-4.15,4.94,4.94,0,0,1,4-1.81,4.87,4.87,0,0,1,3,.95A3.88,3.88,0,0,1,105.9,45.69Zm3.43,8V42.23h5.23A4,4,0,0,1,117,43a2.68,2.68,0,0,1,1,2.26,3.11,3.11,0,0,1-.56,1.89,2.59,2.59,0,0,1-1.66,1v0c1.24.16,1.9,1,2,2.57,0,.92.09,1.43.1,1.54a3,3,0,0,0,.42,1.39h-1.2a4.9,4.9,0,0,1-.3-1.78,6.38,6.38,0,0,0-.4-2.24,1.88,1.88,0,0,0-1.88-1h-4.14v5.07Zm1.08-10.5v4.5h4.06a2.63,2.63,0,0,0,1.76-.61,2,2,0,0,0,.71-1.62,2.17,2.17,0,0,0-.63-1.67,2.55,2.55,0,0,0-1.83-.6Zm11.19,10.5V42.23h7.89v.93h-6.8v4.13h6.36v.93h-6.36v4.51h6.88v.93Zm9.82,0L136,42.23h1.22l4.48,11.43h-1.17l-1.39-3.55H134l-1.38,3.55Zm5.17-10.34-2.29,5.86h4.5Zm6.54-.16v-.93h9.06v.93h-4v10.5h-1.09V43.16Zm11.81,10.5V42.23H156V53.66Zm8.05,0-4.24-11.43h1.17l3.71,10.23h0l3.68-10.23h1.15l-4.24,11.43Zm8.11,0V42.23H179v.93h-6.8v4.13h6.37v.93h-6.37v4.51h6.88v.93Z" transform="translate(0 0)" style="fill:#fff"/><path d="M96.17,28h1.64c-.07,3.07,1.8,4.6,5.59,4.6a5.49,5.49,0,0,0,2.95-.81,3,3,0,0,0,1.58-2.67c0-1.48-1.17-2.52-3.52-3.1L100.59,25c-2.58-.62-3.86-2-3.86-4.13a4.48,4.48,0,0,1,1.15-3,6,6,0,0,1,4.75-1.78,7.06,7.06,0,0,1,4.44,1.34,4.68,4.68,0,0,1,1.9,4h-1.64a3.7,3.7,0,0,0-1.46-2.94,6,6,0,0,0-6.19-.24,3,3,0,0,0-1.32,2.66c0,1.31.86,2.18,2.59,2.61l4.18,1c3,.73,4.44,2.24,4.44,4.51a4.39,4.39,0,0,1-1,2.88c-1.09,1.34-2.94,2-5.55,2a7.85,7.85,0,0,1-5-1.44A5.16,5.16,0,0,1,96.17,28Zm18.39,5.64V16.45h1.63v7.44h10.18V16.45H128V33.59h-1.63v-8.3H116.19v8.3Zm17.4,0,6.91-17.14h1.82l6.72,17.14h-1.75l-2.09-5.33h-7.8l-2.06,5.33Zm7.75-15.5-3.43,8.78H143Zm11.66,15.5V16.45H159a5.2,5.2,0,0,1,3.71,1.3,4.71,4.71,0,0,1,1.38,3.6,4.71,4.71,0,0,1-1.38,3.6,5.2,5.2,0,0,1-3.71,1.3h-6v7.34ZM153,17.84v7h5.62a4.12,4.12,0,0,0,2.78-.9,3.23,3.23,0,0,0,1-2.6,3.36,3.36,0,0,0-1.05-2.64,4.12,4.12,0,0,0-2.76-.86Zm15.88,15.75V16.45h11.84v1.39h-10.2V24h9.55v1.4h-9.55v6.76h10.32v1.4Zm15.48-5.69H188a2.86,2.86,0,0,0,1.15,2.45,4.41,4.41,0,0,0,2.64.72,5.13,5.13,0,0,0,2.16-.41,1.82,1.82,0,0,0,1.18-1.73c0-1-.88-1.71-2.64-2.21q-4.56-1.29-4.92-1.49a4.2,4.2,0,0,1-2.64-4,4.57,4.57,0,0,1,2-3.92A7.54,7.54,0,0,1,191.36,16a8.2,8.2,0,0,1,4.77,1.27,4.85,4.85,0,0,1,2.09,4.25h-3.65c-.09-1.73-1.22-2.59-3.38-2.59a3.34,3.34,0,0,0-1.75.43,1.67,1.67,0,0,0-.84,1.51,1.43,1.43,0,0,0,.93,1.37,35.75,35.75,0,0,0,4.18,1.23,10,10,0,0,1,3,1.15,4.31,4.31,0,0,1,2.09,3.84A4.79,4.79,0,0,1,197,32.43a8.16,8.16,0,0,1-5.3,1.56,8.28,8.28,0,0,1-5.08-1.46A5.38,5.38,0,0,1,184.37,27.9Zm19.06,5.69V16.45h3.77V23h6.93V16.45h3.77V33.59h-3.77v-7.4H207.2v7.4Zm20.18,0V16.45h3.77V33.59Zm9.48,0V16.45h12v3.17h-8.28v4H244v2.93h-7.17v7.08Zm20.42,0v-14h-5.13V16.45h14v3.17h-5.14v14Zm13.28,0V16.45h12.82v3.17h-9.05v3.67h8.3v2.92h-8.3v4.2h9.24v3.18Zm17.95,0V16.45H294a5,5,0,0,1,3.67,1.39A4.55,4.55,0,0,1,299,21.18a4.22,4.22,0,0,1-2.71,4.3v.05c1.5.38,2.33,1.72,2.5,4l.14,2.07a4.36,4.36,0,0,0,.57,2h-3.77a8,8,0,0,1-.4-2l-.2-2.16a3.25,3.25,0,0,0-.82-2,2.86,2.86,0,0,0-2-.6h-3.77v6.7Zm3.77-14.21V24.2h4.13c1.73,0,2.59-.81,2.59-2.45s-.86-2.37-2.59-2.37Zm14.88,8.52H307a2.83,2.83,0,0,0,1.15,2.45,4.41,4.41,0,0,0,2.64.72,5.16,5.16,0,0,0,2.16-.41,1.82,1.82,0,0,0,1.18-1.73c0-1-.88-1.71-2.64-2.21q-4.56-1.29-4.92-1.49a4.18,4.18,0,0,1-2.64-4,4.57,4.57,0,0,1,2-3.92A7.49,7.49,0,0,1,310.37,16a8.21,8.21,0,0,1,4.78,1.27,4.9,4.9,0,0,1,2.09,4.25h-3.65c-.1-1.73-1.22-2.59-3.38-2.59a3.38,3.38,0,0,0-1.76.43,1.69,1.69,0,0,0-.84,1.51,1.44,1.44,0,0,0,.94,1.37,35.75,35.75,0,0,0,4.18,1.23,10.24,10.24,0,0,1,3,1.15,4.28,4.28,0,0,1,2.08,3.84A4.78,4.78,0,0,1,316,32.43a8.18,8.18,0,0,1-5.3,1.56,8.33,8.33,0,0,1-5.09-1.46A5.39,5.39,0,0,1,303.39,27.9Z" transform="translate(0 0)" style="fill:#fff"/><path d="M9.11,49.23,2,53.68,33.74,71.8l-.16-10Z" transform="translate(0 0)" style="fill:#242424;fill-rule:evenodd"/><path d="M51.23,21.25l-38.59,23,29,16.4L81,38.6Z" transform="translate(0 0)" style="fill:#242424;fill-rule:evenodd"/><path d="M12,37.08l9-5.13v7.52L12,44.6Z" transform="translate(0 0)" style="fill:#121212;fill-rule:evenodd"/><path d="M48.26,9.8,28.81,20.85V31.34l19.44-11Z" transform="translate(0 0)" style="fill:#121212;fill-rule:evenodd"/><g style="clip-path:url(#a)"><g style="clip-path:url(#b)"><path d="M18.19,14.7l30.1,17.91V43.1L15.91,24l.05-7.2Z" transform="translate(0 0)" style="fill:#d37215;fill-rule:evenodd"/></g></g><path d="M80.7,23.06,69.49,29.43l.07,10.49,11.31-6.46L82.47,31V24.75Z" transform="translate(0 0)" style="fill:#121212;fill-rule:evenodd"/><g style="clip-path:url(#a)"><g style="clip-path:url(#d)"><path d="M42,13.46l27.54,16V39.92L41.88,23.69V13.43Z" transform="translate(0 0)" style="fill:#d37215;fill-rule:evenodd"/></g></g><path d="M41.64,60.62,81,38.59,82.25,41V61.05l-1.34,2.87L41.55,86.18Z" transform="translate(0 0)" style="fill:#121212;fill-rule:evenodd"/><g style="clip-path:url(#a)"><g style="clip-path:url(#f)"><path d="M3.07,23.79,26.91,37l-.22,9.85-14.26-8v5.56L41.69,60.83l-.07,25.38-39.2-22L1,61.18v-6l1-1.51L31.52,70.37V64.8l-29-16.49L1,45.14,1,25.82Z" transform="translate(0 0)" style="fill:#d37215;fill-rule:evenodd"/></g><g style="clip-path:url(#g)"><path d="M33.29,32.82,42,37.43,43.3,40,34.56,35.2Z" transform="translate(0 0)" style="fill:#99511d;fill-rule:evenodd"/></g></g><path d="M26.62,36.92l8.05-4.81L12.25,19.31H10.88L3.07,23.79Z" transform="translate(0 0)" style="fill:#242424;fill-rule:evenodd"/><g style="clip-path:url(#a)"><g style="clip-path:url(#i)"><path d="M59.67,32.66,68,37.34l1.52,2.58L60.94,35Z" transform="translate(0 0)" style="fill:#99511d;fill-rule:evenodd"/></g></g><path d="M34.67,32.11l1.82,1.66v7.29l-9.8,5.78-.06-9.93Z" transform="translate(0 0)" style="fill:#121212;fill-rule:evenodd"/><path d="M37,39v1.75L26.69,47l1.38-2.57Z" transform="translate(0 0)" style="fill:#040504;fill-rule:evenodd"/><g style="clip-path:url(#a)"><g style="clip-path:url(#k)"><path d="M34,40.72l7.85,4.44.07,10.46-9-5.13-1.05-2.34v-5.4Z" transform="translate(0 0)" style="fill:#d37215;fill-rule:evenodd"/></g></g><path d="M63.38,32.82,41.73,45.16l.14,10.47L63.59,43.19l1.7-2.72v-6Z" transform="translate(0 0)" style="fill:#121212;fill-rule:evenodd"/><path d="M38.33,18.63l3.55-2.13V13.43L35.68,17Z" transform="translate(0 0)" style="fill:#1a1a1a;fill-rule:evenodd"/><path d="M43.09,63.05,82.25,41,81,38.59l-39.36,22Z" transform="translate(0 0)" style="fill:#1a1a1a;fill-rule:evenodd"/><path d="M43.25,47.13l22-12.65-1.81-1.82L41.8,45Z" transform="translate(0 0)" style="fill:#1a1a1a;fill-rule:evenodd"/><path d="M34.67,32.11l1.82,1.66-8.42,5.11-1.45-2.17Z" transform="translate(0 0)" style="fill:#1a1a1a;fill-rule:evenodd"/><path d="M80.81,23,69.49,29.43l1.57,2,11.41-6.67Z" transform="translate(0 0)" style="fill:#1a1a1a;fill-rule:evenodd"/><path d="M1,45.14,32.66,62.81l-1.24,2L2.39,48.4Z" transform="translate(0 0)" style="fill:#99511d;fill-rule:evenodd"/><path d="M10.4,36l14.92,8.46L26.69,47l-14-8Z" transform="translate(0 0)" style="fill:#99511d;fill-rule:evenodd"/><path d="M1,61.18,40.19,83.06l1.43,3.15-39.2-22Z" transform="translate(0 0)" style="fill:#99511d;fill-rule:evenodd"/><path d="M31.82,48.15,40.35,53l1.52,2.64-9-5.13Z" transform="translate(0 0)" style="fill:#99511d;fill-rule:evenodd"/><path d="M43.09,83.06l39.16-22-1.34,2.87L41.62,86.21Z" transform="translate(0 0)" style="fill:#040504;fill-rule:evenodd"/><path d="M40.35,47h2.8l.1.12V53l-.1.17h-2.7L40.34,53Z" transform="translate(0 0)" style="fill:#d37215"/><path d="M40.19,63.05h2.9v20l-.13.29H40.32l-.13-.29Z" transform="translate(0 0)" style="fill:#d37215"/><path d="M10.4,36l2.24,2.92v7.41H10.4Z" transform="translate(0 0)" style="fill:#d37215;fill-rule:evenodd"/><path d="M32.66,62.81l.15,10.38-1.43-3,0-5.41Z" transform="translate(0 0)" style="fill:#d37215;fill-rule:evenodd"/><path d="M45.85,34.52,16,16.76,18,14.65,48.37,32.83Z" transform="translate(0 0)" style="fill:#ee8b3f;fill-rule:evenodd"/><path d="M32.81,73.19,1,55.2l1-1.52L31.38,70.22Z" transform="translate(0 0)" style="fill:#ee8b3f;fill-rule:evenodd"/><path d="M40.19,63.05,10.4,46.33l2.24-2.11,29,16.4Z" transform="translate(0 0)" style="fill:#ee8b3f;fill-rule:evenodd"/><path d="M25.17,38.89,1,25.82l2.05-2L26.62,36.7Z" transform="translate(0 0)" style="fill:#ee8b3f;fill-rule:evenodd"/><path d="M68.23,31.53l-26.35-15V13.43L69.53,29.48Z" transform="translate(0 0)" style="fill:#ee8b3f;fill-rule:evenodd"/><path d="M34,40.72,41.8,45l-1.43,2.11-8.53-4.38Z" transform="translate(0 0)" style="fill:#ee8b3f;fill-rule:evenodd"/><path d="M40.35,53l1.52,2.65L43.25,53Z" transform="translate(0 0)" style="fill:#ac5c23;fill-rule:evenodd"/><path d="M40.19,83.06l1.43,3.15,1.47-3.15Z" transform="translate(0 0)" style="fill:#ac5c23;fill-rule:evenodd"/><g style="clip-path:url(#a)"><g style="clip-path:url(#m)"><path d="M25.68,38.22h1.89l.5.65v5.5h-2.9V38.89Z" transform="translate(0 0)" style="fill:#d37215"/></g></g><path d="M25.17,44.38,26.69,47l1.38-2.57Z" transform="translate(0 0)" style="fill:#ac5c23;fill-rule:evenodd"/><path d="M40.19,63.05l1.45-2.43,1.45,2.43Z" transform="translate(0 0)" style="fill:#ff9b60;fill-rule:evenodd"/><path d="M40.35,47.14,41.8,45l1.45,2.11Z" transform="translate(0 0)" style="fill:#ff9b60;fill-rule:evenodd"/><path d="M25.17,38.89l1.45-2.19,1.45,2.18Z" transform="translate(0 0)" style="fill:#ff9b60;fill-rule:evenodd"/><path d="M41.74,1,18,14.65,48.17,32.7,34,40.72,41.8,45,63.49,32.66,36,16.88l5.9-3.45L69.53,29.48,80.82,23,42.67,1Z" transform="translate(0 0)" style="fill:#242424;fill-rule:evenodd"/><path d="M43.25,53l-1.38,2.63L63.59,43.19l1.7-2.72Z" transform="translate(0 0)" style="fill:#040504;fill-rule:evenodd"/><g style="clip-path:url(#a)"><g style="clip-path:url(#o)"><path d="M68,31.43h3l0,5.89-.47.77H68.51L68,37.34Z" transform="translate(0 0)" style="fill:#d37215"/></g></g><path d="M68,37.33l1.52,2.59L71,37.31Z" transform="translate(0 0)" style="fill:#ac5c23;fill-rule:evenodd"/><path d="M71.06,31.42l-1.53-1.94L68,31.43Z" transform="translate(0 0)" style="fill:#ff9b60;fill-rule:evenodd"/><path d="M41.62,86.21,80.91,63.92l1.33-2.87V41L81,38.6,76.49,36l4.38-2.52L82.47,31V24.75L80.81,23,42.66,1l-.92,0L18,14.65,16,16.77v4.7l-3.71-2.16H10.88L3.07,23.8l-2,2L1,45.14,2.39,48.4l4.2,2.39L2,53.68,1,55.2v6l1.42,3Z" transform="translate(0 0)" style="fill:none"/><path d="M41.62,86.21,80.91,63.92l1.34-2.87V41L81,38.59,76.49,36l4.38-2.51L82.47,31V24.75L80.81,23,42.66,1l-.92,0L18,14.65,16,16.76v4.7l-3.71-2.15H10.88L3.07,23.79l-2,2L1,45.14,2.39,48.4l4.2,2.4L2,53.68,1,55.19v6l1.42,3,39.2,22m0,1.14-.49-.27-39.2-22-.28-.16-.13-.29-1.43-3L0,61.4V54.91l.15-.25,1-1.52L1.23,53l.2-.12,3.2-2L1.89,49.27l-.29-.16-.13-.32L.08,45.53,0,45.34v-.2L0,25.82v-.41l.29-.3,2.05-2L2.45,23l.12-.06,7.81-4.49.23-.13h1.91l.24.13L15,19.72V16.36l.28-.29,2-2.11.1-.1.12-.07L41.24.15,41.47,0h.26l.92,0h.28l.23.14,38.15,22,.13.07.11.11,1.65,1.79.27.28v6.94l-.16.25L81.71,34l-.13.2-.21.12L78.49,36l3,1.75.25.14.13.26,1.25,2.37.12.22V61.27l-.1.2-1.34,2.87-.13.29-.28.16L42.12,87.08Z" transform="translate(0 0)" style="fill:#fff"/><path d="M98.32,67.37H96.81V70h-.9V63.47h2.21a2.62,2.62,0,0,1,1.7.5,2,2,0,0,1,.6,1.5,1.69,1.69,0,0,1-.3,1,1.6,1.6,0,0,1-.9.7l1.5,2.81v.1h-.9Zm-1.51-.8h1.31a1.69,1.69,0,0,0,1-.3,1,1,0,0,0,.4-.9,1.09,1.09,0,0,0-.4-.9,1.93,1.93,0,0,0-1-.3H96.81Z" transform="translate(0 0)" style="fill:#fff"/><path d="M105.32,67h-2.9v2.3h3.3V70h-4.2V63.47h4.2v.7h-3.3v2.1h2.8Z" transform="translate(0 0)" style="fill:#fff"/><path d="M110.42,68.27h-2.7l-.6,1.71h-.9l2.5-6.51h.7l2.5,6.51H111Zm-2.5-.7h2.2l-1.1-3.1Z" transform="translate(0 0)" style="fill:#fff"/><path d="M113.73,69.27h3.1V70h-4V63.47h.91Z" transform="translate(0 0)" style="fill:#fff"/><path d="M124.43,64.17h-2.1V70h-.9V64.17h-2.1v-.7h5.1Z" transform="translate(0 0)" style="fill:#fff"/><path d="M126.33,70h-.9V63.47h.9Z" transform="translate(0 0)" style="fill:#fff"/><path d="M128.93,63.47l2.11,5.3,2.1-5.3h1.1V70h-.9V67.37l.1-2.8-2.1,5.31h-.6l-2.11-5.31.1,2.7v2.51h-.9V63.27h1.1Z" transform="translate(0 0)" style="fill:#fff"/><path d="M139.64,67h-2.8v2.3h3.3V70h-4.2V63.47H140v.7h-3.2v2.1h2.8V67Z" transform="translate(0 0)" style="fill:#fff"/><path d="M144.34,67.37V70h-.9V63.47h2.41a3.37,3.37,0,0,1,1.7.5,2.17,2.17,0,0,1,0,3,2.16,2.16,0,0,1-1.7.5h-1.51Zm0-.7h1.51a1.69,1.69,0,0,0,1-.3,1.09,1.09,0,0,0,.4-.9,1,1,0,0,0-.4-.9,1.43,1.43,0,0,0-1-.4h-1.51Z" transform="translate(0 0)" style="fill:#fff"/><path d="M151.65,67.37h-1.5V70h-.9V63.47h2.2a2.62,2.62,0,0,1,1.7.5,2,2,0,0,1,.6,1.5,1.69,1.69,0,0,1-.3,1,1.6,1.6,0,0,1-.9.7l1.5,2.81v.1h-.9Zm-1.6-.8h1.3a1.69,1.69,0,0,0,1-.3,1,1,0,0,0,.4-.9,1.09,1.09,0,0,0-.4-.9,1.93,1.93,0,0,0-1-.3h-1.3Z" transform="translate(0 0)" style="fill:#fff"/><path d="M160,66.87a5.08,5.08,0,0,1-.3,1.7,3.16,3.16,0,0,1-.9,1.11,2.8,2.8,0,0,1-2.8,0,2.86,2.86,0,0,1-.9-1,4.53,4.53,0,0,1-.3-1.6v-.5a5.08,5.08,0,0,1,.3-1.7,2.44,2.44,0,0,1,.9-1.1,2.65,2.65,0,0,1,2.8,0,2.19,2.19,0,0,1,.9,1,4.67,4.67,0,0,1,.3,1.7Zm-.9-.4a2.9,2.9,0,0,0-.5-1.8,1.72,1.72,0,0,0-2.3-.3l-.3.3a3.37,3.37,0,0,0-.5,1.7v.5a3.09,3.09,0,0,0,.5,1.8,1.35,1.35,0,0,0,1.3.6,1.61,1.61,0,0,0,1.3-.6,3.37,3.37,0,0,0,.5-1.7Z" transform="translate(0 0)" style="fill:#fff"/><path d="M161.26,70V63.47h1.8a2.6,2.6,0,0,1,1.5.4,2.41,2.41,0,0,1,1,1,4.19,4.19,0,0,1,.4,1.6v.4a2.93,2.93,0,0,1-.4,1.6,2.49,2.49,0,0,1-1,1,2.82,2.82,0,0,1-1.5.4Zm.8-5.81v5.1h.9a1.89,1.89,0,0,0,1.5-.6,2.79,2.79,0,0,0,.6-1.8v-.4a2.62,2.62,0,0,0-.5-1.7,1.72,1.72,0,0,0-1.5-.6Z" transform="translate(0 0)" style="fill:#fff"/><path d="M171.86,63.47v4.4a2.07,2.07,0,0,1-.6,1.51,2.93,2.93,0,0,1-1.6.7h-.2a2.72,2.72,0,0,1-1.7-.6,1.94,1.94,0,0,1-.6-1.61v-4.4h.9v4.4a1.43,1.43,0,0,0,1.2,1.51h.3a1.4,1.4,0,0,0,1.5-1.51v-4.4Z" transform="translate(0 0)" style="fill:#fff"/><path d="M178.07,67.87a2.12,2.12,0,0,1-.8,1.61,2.76,2.76,0,0,1-1.71.6,2.32,2.32,0,0,1-1.8-.81,3.41,3.41,0,0,1-.7-2.2v-.6a4.15,4.15,0,0,1,.3-1.6,2.19,2.19,0,0,1,.9-1,2.3,2.3,0,0,1,1.4-.4,2.74,2.74,0,0,1,1.71.6,2.36,2.36,0,0,1,.7,1.6h-.9a1.58,1.58,0,0,0-.51-1.1,1.43,1.43,0,0,0-1-.4,1.61,1.61,0,0,0-1.3.6,3.37,3.37,0,0,0-.5,1.7v.6a3.29,3.29,0,0,0,.4,1.7,1.43,1.43,0,0,0,1.2.61,2,2,0,0,0,1.1-.31,1.58,1.58,0,0,0,.51-1.1Z" transform="translate(0 0)" style="fill:#fff"/><path d="M183.57,64.17h-2.1V70h-.9V64.17h-2.1v-.7h5.1Z" transform="translate(0 0)" style="fill:#fff"/><path d="M185.47,70h-.9V63.47h.9Z" transform="translate(0 0)" style="fill:#fff"/><path d="M192.07,66.87a5.08,5.08,0,0,1-.3,1.7,3.16,3.16,0,0,1-.9,1.11,2.8,2.8,0,0,1-2.8,0,2.86,2.86,0,0,1-.9-1,4.53,4.53,0,0,1-.3-1.6v-.5a5.08,5.08,0,0,1,.3-1.7,2.44,2.44,0,0,1,.9-1.1,2.65,2.65,0,0,1,2.8,0,2.19,2.19,0,0,1,.9,1,4.67,4.67,0,0,1,.3,1.7Zm-.8-.4a2.9,2.9,0,0,0-.5-1.8,1.72,1.72,0,0,0-2.3-.3l-.3.3a3.37,3.37,0,0,0-.5,1.7v.5a3.09,3.09,0,0,0,.5,1.8,1.35,1.35,0,0,0,1.3.6,1.61,1.61,0,0,0,1.3-.6,3.37,3.37,0,0,0,.5-1.7Z" transform="translate(0 0)" style="fill:#fff"/><path d="M198.38,70h-.9l-3.3-5v5h-.9V63.47h.9l3.3,5.1v-5.1h.9Z" transform="translate(0 0)" style="fill:#fff"/><path d="M202.88,71.18h-.7V63.37h.7Z" transform="translate(0 0)" style="fill:#fff"/><path d="M209.19,67.37h-1.51V70h-.9V63.47H209a2.62,2.62,0,0,1,1.7.5,2,2,0,0,1,.6,1.5,1.69,1.69,0,0,1-.3,1,1.6,1.6,0,0,1-.9.7l1.4,2.71V70h-.9Zm-1.61-.8h1.31a1.69,1.69,0,0,0,1-.3,1,1,0,0,0,.4-.9,1.09,1.09,0,0,0-.4-.9,1.93,1.93,0,0,0-1-.3h-1.31Z" transform="translate(0 0)" style="fill:#fff"/><path d="M213.29,70h-.8V63.47h.9V70Z" transform="translate(0 0)" style="fill:#fff"/><path d="M219.69,69.07a2,2,0,0,1-.9.71,3.18,3.18,0,0,1-1.4.2,2.3,2.3,0,0,1-1.4-.4,5,5,0,0,1-1-1,3,3,0,0,1-.3-1.6v-.6a3.31,3.31,0,0,1,.7-2.3,2.09,2.09,0,0,1,1.9-.8,3.37,3.37,0,0,1,1.7.5,2.75,2.75,0,0,1,.8,1.5h-.9a1.42,1.42,0,0,0-1.5-1.3,1.61,1.61,0,0,0-1.3.6,2.69,2.69,0,0,0-.4,1.8v.5a2.62,2.62,0,0,0,.5,1.7,1.75,1.75,0,0,0,1.4.7,2.77,2.77,0,0,0,.9-.1,2.09,2.09,0,0,0,.6-.4v-1.4h-1.5v-.7H220Z" transform="translate(0 0)" style="fill:#fff"/><path d="M226,69.07a2,2,0,0,1-.9.71,3.22,3.22,0,0,1-1.41.2,2.3,2.3,0,0,1-1.4-.4,3.21,3.21,0,0,1-1-1,4.71,4.71,0,0,1-.4-1.6v-.6a3.31,3.31,0,0,1,.7-2.3,2.09,2.09,0,0,1,1.9-.8,3.41,3.41,0,0,1,1.71.5,2.75,2.75,0,0,1,.8,1.5h-.9a1.43,1.43,0,0,0-1.51-1.3,1.61,1.61,0,0,0-1.3.6,2.69,2.69,0,0,0-.4,1.8v.5a2.62,2.62,0,0,0,.5,1.7,1.75,1.75,0,0,0,1.4.7,2.86,2.86,0,0,0,.91-.1,2.09,2.09,0,0,0,.6-.4v-1.4h-1.51v-.7h2.41Z" transform="translate(0 0)" style="fill:#fff"/><path d="M228.4,70h-.9V63.47h.9Z" transform="translate(0 0)" style="fill:#fff"/><path d="M235,70h-.9l-3.3-5v5h-.9V63.47h.9l3.3,5.1v-5.1h.9Z" transform="translate(0 0)" style="fill:#fff"/><path d="M241.31,69.07a2,2,0,0,1-.9.71A3.25,3.25,0,0,1,239,70a2.3,2.3,0,0,1-1.4-.4,2.43,2.43,0,0,1-1-1,4.53,4.53,0,0,1-.3-1.6v-.6a3.31,3.31,0,0,1,.7-2.3,2.09,2.09,0,0,1,1.9-.8,2.82,2.82,0,0,1,1.61.5,2.75,2.75,0,0,1,.8,1.5h-.8A1.38,1.38,0,0,0,239,64a1.61,1.61,0,0,0-1.3.6,3.45,3.45,0,0,0-.5,1.8v.5a2.62,2.62,0,0,0,.5,1.7,1.75,1.75,0,0,0,1.4.7,2,2,0,0,0,.8-.1,2.28,2.28,0,0,0,.61-.4v-1.5H239v-.7h2.41Z" transform="translate(0 0)" style="fill:#fff"/><path d="M244.81,68.17a1.61,1.61,0,0,1,.3-.9,2.84,2.84,0,0,1,1-.9,7,7,0,0,1-.6-.9,1.27,1.27,0,0,1-.1-.6,1.41,1.41,0,0,1,1.6-1.6,1.5,1.5,0,0,1,1.1.4,1,1,0,0,1,.4,1,1.45,1.45,0,0,1-.2.7,2.34,2.34,0,0,1-.7.7l-.5.4,1.5,1.7a2.77,2.77,0,0,0,.3-1.3h.7a3.29,3.29,0,0,1-.6,1.9l.9,1.11h-1l-.4-.5a2.18,2.18,0,0,1-.8.5,2.77,2.77,0,0,1-.9.1,2.46,2.46,0,0,1-1.5-.5A1.19,1.19,0,0,1,244.81,68.17Zm2,1.21a1.66,1.66,0,0,0,1.2-.51l-1.6-1.9-.1.1a1.36,1.36,0,0,0-.7,1.1,1.07,1.07,0,0,0,1.2,1.21Zm-.7-4.51a1.6,1.6,0,0,0,.5,1l.5-.4a.78.78,0,0,0,.4-.4.75.75,0,0,0,.1-.5.76.76,0,0,0-.2-.5,1,1,0,0,0-1.2,0c0,.4-.1.6-.1.8Z" transform="translate(0 0)" style="fill:#fff"/><path d="M257.42,64.17h-2.11V70h-.8V64.17h-2.1v-.7h5.11Z" transform="translate(0 0)" style="fill:#fff"/><path d="M258.42,70V63.47h1.8a2.6,2.6,0,0,1,1.5.4,2.41,2.41,0,0,1,1,1,4.19,4.19,0,0,1,.4,1.6v.4a2.93,2.93,0,0,1-.4,1.6,2.49,2.49,0,0,1-1,1,2.82,2.82,0,0,1-1.5.4Zm.8-5.81v5.1h.9a1.89,1.89,0,0,0,1.5-.6,2.79,2.79,0,0,0,.6-1.8v-.4a2.62,2.62,0,0,0-.5-1.7,1.72,1.72,0,0,0-1.5-.6Z" transform="translate(0 0)" style="fill:#fff"/><path d="M268.62,67.07a3.46,3.46,0,0,1-1.6-.8,1.59,1.59,0,0,1,.1-2.4,2.35,2.35,0,0,1,1.6-.5,2.66,2.66,0,0,1,1.2.3,2.7,2.7,0,0,1,.8.7,1.93,1.93,0,0,1,.3,1h-.9a1,1,0,0,0-.4-.9,1.31,1.31,0,0,0-1-.3,1.69,1.69,0,0,0-1,.3,1.23,1.23,0,0,0-.4.8.91.91,0,0,0,.3.7,3.34,3.34,0,0,0,1.2.5,6.94,6.94,0,0,1,1.3.5,4.35,4.35,0,0,1,.7.6,1.49,1.49,0,0,1,.2.9,1.63,1.63,0,0,1-.6,1.31,3.37,3.37,0,0,1-1.7.5,5.85,5.85,0,0,1-1.3-.2,2.18,2.18,0,0,1-.9-.7,2,2,0,0,1-.3-1h.9a1,1,0,0,0,.4.9,2.09,2.09,0,0,0,2.2,0,1.23,1.23,0,0,0,.4-.8.78.78,0,0,0-.3-.7A2.52,2.52,0,0,0,268.62,67.07Z" transform="translate(0 0)" style="fill:#fff"/><path d="M275.83,67H273v2.3h3.3V70h-4.21V63.47h4.21v.7H273v2.1h2.8Z" transform="translate(0 0)" style="fill:#fff"/><path d="M279.73,67.37h-1.5V70h-.8V63.47h2.1a2.62,2.62,0,0,1,1.7.5,2,2,0,0,1,.6,1.5,1.69,1.69,0,0,1-.3,1,1.6,1.6,0,0,1-.9.7l1.5,2.81v.1h-.9Zm-1.5-.8h1.3a1.69,1.69,0,0,0,1-.3,1,1,0,0,0,.4-.9,1.09,1.09,0,0,0-.4-.9,1.93,1.93,0,0,0-1-.3h-1.3Z" transform="translate(0 0)" style="fill:#fff"/><path d="M285.13,68.87l1.9-5.4h.9L285.53,70h-.8l-2.4-6.51h.9Z" transform="translate(0 0)" style="fill:#fff"/><path d="M289.74,70h-.9V63.47h.9Z" transform="translate(0 0)" style="fill:#fff"/><path d="M296.14,67.87a2.12,2.12,0,0,1-.8,1.61,2.67,2.67,0,0,1-3.6-.21,3.41,3.41,0,0,1-.7-2.2v-.6a4.15,4.15,0,0,1,.3-1.6,2.19,2.19,0,0,1,.9-1,2.3,2.3,0,0,1,1.4-.4,2.72,2.72,0,0,1,1.7.6,2.36,2.36,0,0,1,.7,1.6h-.9a1.61,1.61,0,0,0-.5-1.1,1.43,1.43,0,0,0-1-.4,1.61,1.61,0,0,0-1.3.6,3.37,3.37,0,0,0-.5,1.7v.6a3.29,3.29,0,0,0,.4,1.7,1.57,1.57,0,0,0,1.2.61,2,2,0,0,0,1.1-.31A1.61,1.61,0,0,0,295,68Z" transform="translate(0 0)" style="fill:#fff"/><path d="M301,67h-2.8v2.3h3.3V70h-4.2V63.47h4.1v.7h-3.2v2.1H301Z" transform="translate(0 0)" style="fill:#fff"/><path d="M304.45,67.07a3.45,3.45,0,0,1-1.61-.8,1.59,1.59,0,0,1,.1-2.4,2.38,2.38,0,0,1,1.61-.5,2.66,2.66,0,0,1,1.2.3,2.7,2.7,0,0,1,.8.7,1.93,1.93,0,0,1,.3,1H306a1,1,0,0,0-.4-.9,1.31,1.31,0,0,0-1-.3,1.72,1.72,0,0,0-1,.3,1.23,1.23,0,0,0-.4.8.91.91,0,0,0,.3.7,3.39,3.39,0,0,0,1.21.5,6.94,6.94,0,0,1,1.3.5,4.35,4.35,0,0,1,.7.6,1.49,1.49,0,0,1,.2.9,1.63,1.63,0,0,1-.6,1.31,3.37,3.37,0,0,1-1.7.5,5.94,5.94,0,0,1-1.31-.2,2.18,2.18,0,0,1-.9-.7,2,2,0,0,1-.3-1h.9a1,1,0,0,0,.4.9,1.66,1.66,0,0,0,1.21.31,1.63,1.63,0,0,0,1-.31,1.23,1.23,0,0,0,.4-.8.78.78,0,0,0-.3-.7A2.52,2.52,0,0,0,304.45,67.07Z" transform="translate(0 0)" style="fill:#fff"/></svg>